<mxfile host="Electron" agent="Mozilla/5.0 (X11; Linux x86_64) AppleWebKit/537.36 (KHTML, like Gecko) draw.io/26.0.16 Chrome/132.0.6834.196 Electron/34.2.0 Safari/537.36" version="26.0.16" pages="2">
  <diagram id="h2uCwHawAl6BEzU_7ndh" name="Page-1">
    <mxGraphModel dx="1858" dy="654" grid="1" gridSize="10" guides="1" tooltips="1" connect="1" arrows="1" fold="1" page="1" pageScale="1" pageWidth="827" pageHeight="1169" math="1" shadow="0">
      <root>
        <mxCell id="0" />
        <mxCell id="1" parent="0" />
        <mxCell id="9xVH19uUfagaDJwgi8uV-118" value="" style="endArrow=none;dashed=1;html=1;dashPattern=1 3;strokeWidth=2;rounded=0;fontSize=22;" parent="1" edge="1">
          <mxGeometry width="50" height="50" relative="1" as="geometry">
            <mxPoint x="670" y="220" as="sourcePoint" />
            <mxPoint x="395" y="420" as="targetPoint" />
          </mxGeometry>
        </mxCell>
        <mxCell id="9xVH19uUfagaDJwgi8uV-119" value="$$z$$" style="text;html=1;align=center;verticalAlign=middle;whiteSpace=wrap;rounded=0;fontSize=22;" parent="1" vertex="1">
          <mxGeometry x="43" y="404" width="30" height="20" as="geometry" />
        </mxCell>
        <mxCell id="9xVH19uUfagaDJwgi8uV-121" value="" style="endArrow=classic;html=1;rounded=0;" parent="1" edge="1">
          <mxGeometry width="50" height="50" relative="1" as="geometry">
            <mxPoint x="20" y="440" as="sourcePoint" />
            <mxPoint x="90" y="440" as="targetPoint" />
          </mxGeometry>
        </mxCell>
        <mxCell id="9xVH19uUfagaDJwgi8uV-122" value="" style="endArrow=classic;html=1;rounded=0;" parent="1" edge="1">
          <mxGeometry width="50" height="50" relative="1" as="geometry">
            <mxPoint x="20" y="440" as="sourcePoint" />
            <mxPoint x="20" y="380" as="targetPoint" />
          </mxGeometry>
        </mxCell>
        <mxCell id="9xVH19uUfagaDJwgi8uV-123" value="" style="endArrow=classic;html=1;rounded=0;" parent="1" edge="1">
          <mxGeometry width="50" height="50" relative="1" as="geometry">
            <mxPoint x="20" y="440" as="sourcePoint" />
            <mxPoint x="70" y="390" as="targetPoint" />
          </mxGeometry>
        </mxCell>
        <mxCell id="9xVH19uUfagaDJwgi8uV-124" value="$$x$$" style="text;html=1;align=center;verticalAlign=middle;whiteSpace=wrap;rounded=0;fontSize=22;" parent="1" vertex="1">
          <mxGeometry x="38" y="442" width="30" height="20" as="geometry" />
        </mxCell>
        <mxCell id="9xVH19uUfagaDJwgi8uV-125" value="$$y$$" style="text;html=1;align=center;verticalAlign=middle;whiteSpace=wrap;rounded=0;fontSize=22;" parent="1" vertex="1">
          <mxGeometry x="-7" y="402" width="30" height="20" as="geometry" />
        </mxCell>
        <mxCell id="9xVH19uUfagaDJwgi8uV-127" value="0" style="text;html=1;align=center;verticalAlign=middle;whiteSpace=wrap;rounded=0;fontSize=16;" parent="1" vertex="1">
          <mxGeometry x="368" y="438" width="17" height="20" as="geometry" />
        </mxCell>
        <mxCell id="9xVH19uUfagaDJwgi8uV-129" value="79" style="text;html=1;align=center;verticalAlign=middle;whiteSpace=wrap;rounded=0;fontSize=16;" parent="1" vertex="1">
          <mxGeometry x="688" y="206" width="17" height="20" as="geometry" />
        </mxCell>
        <mxCell id="nolEaMaMSGzeIynyG51u-1" value="" style="shape=cube;whiteSpace=wrap;html=1;boundedLbl=1;backgroundOutline=1;darkOpacity=0.05;darkOpacity2=0.1;size=10;fontSize=16;rotation=90;" vertex="1" parent="1">
          <mxGeometry x="220" y="380" width="50" height="50" as="geometry" />
        </mxCell>
        <mxCell id="nolEaMaMSGzeIynyG51u-2" value="0" style="text;html=1;align=center;verticalAlign=middle;whiteSpace=wrap;rounded=0;fontSize=16;" vertex="1" parent="1">
          <mxGeometry x="230" y="397" width="20" height="30" as="geometry" />
        </mxCell>
        <mxCell id="nolEaMaMSGzeIynyG51u-3" value="" style="shape=cube;whiteSpace=wrap;html=1;boundedLbl=1;backgroundOutline=1;darkOpacity=0.05;darkOpacity2=0.1;size=10;fontSize=16;rotation=90;" vertex="1" parent="1">
          <mxGeometry x="220" y="340" width="50" height="50" as="geometry" />
        </mxCell>
        <mxCell id="nolEaMaMSGzeIynyG51u-4" value="4" style="text;html=1;align=center;verticalAlign=middle;whiteSpace=wrap;rounded=0;fontSize=16;" vertex="1" parent="1">
          <mxGeometry x="230" y="357" width="20" height="30" as="geometry" />
        </mxCell>
        <mxCell id="nolEaMaMSGzeIynyG51u-5" value="" style="shape=cube;whiteSpace=wrap;html=1;boundedLbl=1;backgroundOutline=1;darkOpacity=0.05;darkOpacity2=0.1;size=10;fontSize=16;rotation=90;" vertex="1" parent="1">
          <mxGeometry x="220" y="300" width="50" height="50" as="geometry" />
        </mxCell>
        <mxCell id="nolEaMaMSGzeIynyG51u-6" value="8" style="text;html=1;align=center;verticalAlign=middle;whiteSpace=wrap;rounded=0;fontSize=16;" vertex="1" parent="1">
          <mxGeometry x="230" y="317" width="20" height="30" as="geometry" />
        </mxCell>
        <mxCell id="nolEaMaMSGzeIynyG51u-7" value="" style="shape=cube;whiteSpace=wrap;html=1;boundedLbl=1;backgroundOutline=1;darkOpacity=0.05;darkOpacity2=0.1;size=10;fontSize=16;rotation=90;" vertex="1" parent="1">
          <mxGeometry x="220" y="260" width="50" height="50" as="geometry" />
        </mxCell>
        <mxCell id="nolEaMaMSGzeIynyG51u-8" value="12" style="text;html=1;align=center;verticalAlign=middle;whiteSpace=wrap;rounded=0;fontSize=16;" vertex="1" parent="1">
          <mxGeometry x="230" y="277" width="20" height="30" as="geometry" />
        </mxCell>
        <mxCell id="nolEaMaMSGzeIynyG51u-9" value="" style="shape=cube;whiteSpace=wrap;html=1;boundedLbl=1;backgroundOutline=1;darkOpacity=0.05;darkOpacity2=0.1;size=10;fontSize=16;rotation=90;" vertex="1" parent="1">
          <mxGeometry x="260" y="380" width="50" height="50" as="geometry" />
        </mxCell>
        <mxCell id="nolEaMaMSGzeIynyG51u-10" value="1" style="text;html=1;align=center;verticalAlign=middle;whiteSpace=wrap;rounded=0;fontSize=16;" vertex="1" parent="1">
          <mxGeometry x="270" y="397" width="20" height="30" as="geometry" />
        </mxCell>
        <mxCell id="nolEaMaMSGzeIynyG51u-11" value="" style="shape=cube;whiteSpace=wrap;html=1;boundedLbl=1;backgroundOutline=1;darkOpacity=0.05;darkOpacity2=0.1;size=10;fontSize=16;rotation=90;" vertex="1" parent="1">
          <mxGeometry x="260" y="340" width="50" height="50" as="geometry" />
        </mxCell>
        <mxCell id="nolEaMaMSGzeIynyG51u-12" value="5" style="text;html=1;align=center;verticalAlign=middle;whiteSpace=wrap;rounded=0;fontSize=16;" vertex="1" parent="1">
          <mxGeometry x="270" y="357" width="20" height="30" as="geometry" />
        </mxCell>
        <mxCell id="nolEaMaMSGzeIynyG51u-13" value="" style="shape=cube;whiteSpace=wrap;html=1;boundedLbl=1;backgroundOutline=1;darkOpacity=0.05;darkOpacity2=0.1;size=10;fontSize=16;rotation=90;" vertex="1" parent="1">
          <mxGeometry x="260" y="300" width="50" height="50" as="geometry" />
        </mxCell>
        <mxCell id="nolEaMaMSGzeIynyG51u-14" value="9" style="text;html=1;align=center;verticalAlign=middle;whiteSpace=wrap;rounded=0;fontSize=16;" vertex="1" parent="1">
          <mxGeometry x="270" y="317" width="20" height="30" as="geometry" />
        </mxCell>
        <mxCell id="nolEaMaMSGzeIynyG51u-15" value="" style="shape=cube;whiteSpace=wrap;html=1;boundedLbl=1;backgroundOutline=1;darkOpacity=0.05;darkOpacity2=0.1;size=10;fontSize=16;rotation=90;" vertex="1" parent="1">
          <mxGeometry x="260" y="260" width="50" height="50" as="geometry" />
        </mxCell>
        <mxCell id="nolEaMaMSGzeIynyG51u-16" value="13" style="text;html=1;align=center;verticalAlign=middle;whiteSpace=wrap;rounded=0;fontSize=16;" vertex="1" parent="1">
          <mxGeometry x="270" y="277" width="20" height="30" as="geometry" />
        </mxCell>
        <mxCell id="nolEaMaMSGzeIynyG51u-17" value="" style="shape=cube;whiteSpace=wrap;html=1;boundedLbl=1;backgroundOutline=1;darkOpacity=0.05;darkOpacity2=0.1;size=10;fontSize=16;rotation=90;" vertex="1" parent="1">
          <mxGeometry x="300" y="380" width="50" height="50" as="geometry" />
        </mxCell>
        <mxCell id="nolEaMaMSGzeIynyG51u-18" value="2" style="text;html=1;align=center;verticalAlign=middle;whiteSpace=wrap;rounded=0;fontSize=16;" vertex="1" parent="1">
          <mxGeometry x="310" y="397" width="20" height="30" as="geometry" />
        </mxCell>
        <mxCell id="nolEaMaMSGzeIynyG51u-19" value="" style="shape=cube;whiteSpace=wrap;html=1;boundedLbl=1;backgroundOutline=1;darkOpacity=0.05;darkOpacity2=0.1;size=10;fontSize=16;rotation=90;" vertex="1" parent="1">
          <mxGeometry x="300" y="340" width="50" height="50" as="geometry" />
        </mxCell>
        <mxCell id="nolEaMaMSGzeIynyG51u-20" value="6" style="text;html=1;align=center;verticalAlign=middle;whiteSpace=wrap;rounded=0;fontSize=16;" vertex="1" parent="1">
          <mxGeometry x="310" y="357" width="20" height="30" as="geometry" />
        </mxCell>
        <mxCell id="nolEaMaMSGzeIynyG51u-21" value="" style="shape=cube;whiteSpace=wrap;html=1;boundedLbl=1;backgroundOutline=1;darkOpacity=0.05;darkOpacity2=0.1;size=10;fontSize=16;rotation=90;" vertex="1" parent="1">
          <mxGeometry x="300" y="300" width="50" height="50" as="geometry" />
        </mxCell>
        <mxCell id="nolEaMaMSGzeIynyG51u-22" value="10" style="text;html=1;align=center;verticalAlign=middle;whiteSpace=wrap;rounded=0;fontSize=16;" vertex="1" parent="1">
          <mxGeometry x="310" y="317" width="20" height="30" as="geometry" />
        </mxCell>
        <mxCell id="nolEaMaMSGzeIynyG51u-23" value="" style="shape=cube;whiteSpace=wrap;html=1;boundedLbl=1;backgroundOutline=1;darkOpacity=0.05;darkOpacity2=0.1;size=10;fontSize=16;rotation=90;" vertex="1" parent="1">
          <mxGeometry x="300" y="260" width="50" height="50" as="geometry" />
        </mxCell>
        <mxCell id="nolEaMaMSGzeIynyG51u-24" value="14" style="text;html=1;align=center;verticalAlign=middle;whiteSpace=wrap;rounded=0;fontSize=16;" vertex="1" parent="1">
          <mxGeometry x="310" y="277" width="20" height="30" as="geometry" />
        </mxCell>
        <mxCell id="nolEaMaMSGzeIynyG51u-25" value="" style="shape=cube;whiteSpace=wrap;html=1;boundedLbl=1;backgroundOutline=1;darkOpacity=0.05;darkOpacity2=0.1;size=10;fontSize=16;rotation=90;" vertex="1" parent="1">
          <mxGeometry x="340" y="380" width="50" height="50" as="geometry" />
        </mxCell>
        <mxCell id="nolEaMaMSGzeIynyG51u-26" value="3" style="text;html=1;align=center;verticalAlign=middle;whiteSpace=wrap;rounded=0;fontSize=16;" vertex="1" parent="1">
          <mxGeometry x="350" y="397" width="20" height="30" as="geometry" />
        </mxCell>
        <mxCell id="nolEaMaMSGzeIynyG51u-27" value="" style="shape=cube;whiteSpace=wrap;html=1;boundedLbl=1;backgroundOutline=1;darkOpacity=0.05;darkOpacity2=0.1;size=10;fontSize=16;rotation=90;" vertex="1" parent="1">
          <mxGeometry x="340" y="340" width="50" height="50" as="geometry" />
        </mxCell>
        <mxCell id="nolEaMaMSGzeIynyG51u-28" value="7" style="text;html=1;align=center;verticalAlign=middle;whiteSpace=wrap;rounded=0;fontSize=16;" vertex="1" parent="1">
          <mxGeometry x="350" y="357" width="20" height="30" as="geometry" />
        </mxCell>
        <mxCell id="nolEaMaMSGzeIynyG51u-29" value="" style="shape=cube;whiteSpace=wrap;html=1;boundedLbl=1;backgroundOutline=1;darkOpacity=0.05;darkOpacity2=0.1;size=10;fontSize=16;rotation=90;" vertex="1" parent="1">
          <mxGeometry x="340" y="300" width="50" height="50" as="geometry" />
        </mxCell>
        <mxCell id="nolEaMaMSGzeIynyG51u-30" value="11" style="text;html=1;align=center;verticalAlign=middle;whiteSpace=wrap;rounded=0;fontSize=16;" vertex="1" parent="1">
          <mxGeometry x="350" y="317" width="20" height="30" as="geometry" />
        </mxCell>
        <mxCell id="nolEaMaMSGzeIynyG51u-31" value="" style="shape=cube;whiteSpace=wrap;html=1;boundedLbl=1;backgroundOutline=1;darkOpacity=0.05;darkOpacity2=0.1;size=10;fontSize=16;rotation=90;" vertex="1" parent="1">
          <mxGeometry x="340" y="260" width="50" height="50" as="geometry" />
        </mxCell>
        <mxCell id="nolEaMaMSGzeIynyG51u-32" value="15" style="text;html=1;align=center;verticalAlign=middle;whiteSpace=wrap;rounded=0;fontSize=16;" vertex="1" parent="1">
          <mxGeometry x="350" y="277" width="20" height="30" as="geometry" />
        </mxCell>
        <mxCell id="nolEaMaMSGzeIynyG51u-33" value="" style="shape=cube;whiteSpace=wrap;html=1;boundedLbl=1;backgroundOutline=1;darkOpacity=0.05;darkOpacity2=0.1;size=10;fontSize=14;rotation=90;" vertex="1" parent="1">
          <mxGeometry x="520" y="160" width="50" height="50" as="geometry" />
        </mxCell>
        <mxCell id="nolEaMaMSGzeIynyG51u-34" value="1264" style="text;html=1;align=center;verticalAlign=middle;whiteSpace=wrap;rounded=0;fontSize=14;" vertex="1" parent="1">
          <mxGeometry x="530" y="177" width="20" height="30" as="geometry" />
        </mxCell>
        <mxCell id="nolEaMaMSGzeIynyG51u-35" value="" style="shape=cube;whiteSpace=wrap;html=1;boundedLbl=1;backgroundOutline=1;darkOpacity=0.05;darkOpacity2=0.1;size=10;fontSize=14;rotation=90;" vertex="1" parent="1">
          <mxGeometry x="520" y="120" width="50" height="50" as="geometry" />
        </mxCell>
        <mxCell id="nolEaMaMSGzeIynyG51u-36" value="1268" style="text;html=1;align=center;verticalAlign=middle;whiteSpace=wrap;rounded=0;fontSize=14;" vertex="1" parent="1">
          <mxGeometry x="530" y="137" width="20" height="30" as="geometry" />
        </mxCell>
        <mxCell id="nolEaMaMSGzeIynyG51u-37" value="" style="shape=cube;whiteSpace=wrap;html=1;boundedLbl=1;backgroundOutline=1;darkOpacity=0.05;darkOpacity2=0.1;size=10;fontSize=14;rotation=90;" vertex="1" parent="1">
          <mxGeometry x="520" y="80" width="50" height="50" as="geometry" />
        </mxCell>
        <mxCell id="nolEaMaMSGzeIynyG51u-38" value="1272" style="text;html=1;align=center;verticalAlign=middle;whiteSpace=wrap;rounded=0;fontSize=14;" vertex="1" parent="1">
          <mxGeometry x="530" y="97" width="20" height="30" as="geometry" />
        </mxCell>
        <mxCell id="nolEaMaMSGzeIynyG51u-39" value="" style="shape=cube;whiteSpace=wrap;html=1;boundedLbl=1;backgroundOutline=1;darkOpacity=0.05;darkOpacity2=0.1;size=10;fontSize=14;rotation=90;" vertex="1" parent="1">
          <mxGeometry x="520" y="40" width="50" height="50" as="geometry" />
        </mxCell>
        <mxCell id="nolEaMaMSGzeIynyG51u-40" value="1276" style="text;html=1;align=center;verticalAlign=middle;whiteSpace=wrap;rounded=0;fontSize=14;" vertex="1" parent="1">
          <mxGeometry x="530" y="57" width="20" height="30" as="geometry" />
        </mxCell>
        <mxCell id="nolEaMaMSGzeIynyG51u-41" value="" style="shape=cube;whiteSpace=wrap;html=1;boundedLbl=1;backgroundOutline=1;darkOpacity=0.05;darkOpacity2=0.1;size=10;fontSize=14;rotation=90;" vertex="1" parent="1">
          <mxGeometry x="560" y="160" width="50" height="50" as="geometry" />
        </mxCell>
        <mxCell id="nolEaMaMSGzeIynyG51u-42" value="1265" style="text;html=1;align=center;verticalAlign=middle;whiteSpace=wrap;rounded=0;fontSize=14;" vertex="1" parent="1">
          <mxGeometry x="570" y="177" width="20" height="30" as="geometry" />
        </mxCell>
        <mxCell id="nolEaMaMSGzeIynyG51u-43" value="" style="shape=cube;whiteSpace=wrap;html=1;boundedLbl=1;backgroundOutline=1;darkOpacity=0.05;darkOpacity2=0.1;size=10;fontSize=14;rotation=90;" vertex="1" parent="1">
          <mxGeometry x="560" y="120" width="50" height="50" as="geometry" />
        </mxCell>
        <mxCell id="nolEaMaMSGzeIynyG51u-44" value="1269" style="text;html=1;align=center;verticalAlign=middle;whiteSpace=wrap;rounded=0;fontSize=14;" vertex="1" parent="1">
          <mxGeometry x="570" y="137" width="20" height="30" as="geometry" />
        </mxCell>
        <mxCell id="nolEaMaMSGzeIynyG51u-45" value="" style="shape=cube;whiteSpace=wrap;html=1;boundedLbl=1;backgroundOutline=1;darkOpacity=0.05;darkOpacity2=0.1;size=10;fontSize=14;rotation=90;" vertex="1" parent="1">
          <mxGeometry x="560" y="80" width="50" height="50" as="geometry" />
        </mxCell>
        <mxCell id="nolEaMaMSGzeIynyG51u-46" value="1273" style="text;html=1;align=center;verticalAlign=middle;whiteSpace=wrap;rounded=0;fontSize=14;" vertex="1" parent="1">
          <mxGeometry x="570" y="97" width="20" height="30" as="geometry" />
        </mxCell>
        <mxCell id="nolEaMaMSGzeIynyG51u-47" value="" style="shape=cube;whiteSpace=wrap;html=1;boundedLbl=1;backgroundOutline=1;darkOpacity=0.05;darkOpacity2=0.1;size=10;fontSize=14;rotation=90;" vertex="1" parent="1">
          <mxGeometry x="560" y="40" width="50" height="50" as="geometry" />
        </mxCell>
        <mxCell id="nolEaMaMSGzeIynyG51u-48" value="1277" style="text;html=1;align=center;verticalAlign=middle;whiteSpace=wrap;rounded=0;fontSize=14;" vertex="1" parent="1">
          <mxGeometry x="570" y="57" width="20" height="30" as="geometry" />
        </mxCell>
        <mxCell id="nolEaMaMSGzeIynyG51u-49" value="" style="shape=cube;whiteSpace=wrap;html=1;boundedLbl=1;backgroundOutline=1;darkOpacity=0.05;darkOpacity2=0.1;size=10;fontSize=14;rotation=90;" vertex="1" parent="1">
          <mxGeometry x="600" y="160" width="50" height="50" as="geometry" />
        </mxCell>
        <mxCell id="nolEaMaMSGzeIynyG51u-50" value="1266" style="text;html=1;align=center;verticalAlign=middle;whiteSpace=wrap;rounded=0;fontSize=14;" vertex="1" parent="1">
          <mxGeometry x="610" y="177" width="20" height="30" as="geometry" />
        </mxCell>
        <mxCell id="nolEaMaMSGzeIynyG51u-51" value="" style="shape=cube;whiteSpace=wrap;html=1;boundedLbl=1;backgroundOutline=1;darkOpacity=0.05;darkOpacity2=0.1;size=10;fontSize=14;rotation=90;" vertex="1" parent="1">
          <mxGeometry x="600" y="120" width="50" height="50" as="geometry" />
        </mxCell>
        <mxCell id="nolEaMaMSGzeIynyG51u-52" value="1270" style="text;html=1;align=center;verticalAlign=middle;whiteSpace=wrap;rounded=0;fontSize=14;" vertex="1" parent="1">
          <mxGeometry x="610" y="137" width="20" height="30" as="geometry" />
        </mxCell>
        <mxCell id="nolEaMaMSGzeIynyG51u-53" value="" style="shape=cube;whiteSpace=wrap;html=1;boundedLbl=1;backgroundOutline=1;darkOpacity=0.05;darkOpacity2=0.1;size=10;fontSize=14;rotation=90;" vertex="1" parent="1">
          <mxGeometry x="600" y="80" width="50" height="50" as="geometry" />
        </mxCell>
        <mxCell id="nolEaMaMSGzeIynyG51u-54" value="1274" style="text;html=1;align=center;verticalAlign=middle;whiteSpace=wrap;rounded=0;fontSize=14;" vertex="1" parent="1">
          <mxGeometry x="610" y="97" width="20" height="30" as="geometry" />
        </mxCell>
        <mxCell id="nolEaMaMSGzeIynyG51u-55" value="" style="shape=cube;whiteSpace=wrap;html=1;boundedLbl=1;backgroundOutline=1;darkOpacity=0.05;darkOpacity2=0.1;size=10;fontSize=14;rotation=90;" vertex="1" parent="1">
          <mxGeometry x="600" y="40" width="50" height="50" as="geometry" />
        </mxCell>
        <mxCell id="nolEaMaMSGzeIynyG51u-56" value="1278" style="text;html=1;align=center;verticalAlign=middle;whiteSpace=wrap;rounded=0;fontSize=14;" vertex="1" parent="1">
          <mxGeometry x="610" y="57" width="20" height="30" as="geometry" />
        </mxCell>
        <mxCell id="nolEaMaMSGzeIynyG51u-57" value="" style="shape=cube;whiteSpace=wrap;html=1;boundedLbl=1;backgroundOutline=1;darkOpacity=0.05;darkOpacity2=0.1;size=10;fontSize=14;rotation=90;" vertex="1" parent="1">
          <mxGeometry x="640" y="160" width="50" height="50" as="geometry" />
        </mxCell>
        <mxCell id="nolEaMaMSGzeIynyG51u-58" value="1267" style="text;html=1;align=center;verticalAlign=middle;whiteSpace=wrap;rounded=0;fontSize=14;" vertex="1" parent="1">
          <mxGeometry x="650" y="177" width="20" height="30" as="geometry" />
        </mxCell>
        <mxCell id="nolEaMaMSGzeIynyG51u-59" value="" style="shape=cube;whiteSpace=wrap;html=1;boundedLbl=1;backgroundOutline=1;darkOpacity=0.05;darkOpacity2=0.1;size=10;fontSize=14;rotation=90;" vertex="1" parent="1">
          <mxGeometry x="640" y="120" width="50" height="50" as="geometry" />
        </mxCell>
        <mxCell id="nolEaMaMSGzeIynyG51u-60" value="1271" style="text;html=1;align=center;verticalAlign=middle;whiteSpace=wrap;rounded=0;fontSize=14;" vertex="1" parent="1">
          <mxGeometry x="650" y="137" width="20" height="30" as="geometry" />
        </mxCell>
        <mxCell id="nolEaMaMSGzeIynyG51u-61" value="" style="shape=cube;whiteSpace=wrap;html=1;boundedLbl=1;backgroundOutline=1;darkOpacity=0.05;darkOpacity2=0.1;size=10;fontSize=14;rotation=90;" vertex="1" parent="1">
          <mxGeometry x="640" y="80" width="50" height="50" as="geometry" />
        </mxCell>
        <mxCell id="nolEaMaMSGzeIynyG51u-62" value="1275" style="text;html=1;align=center;verticalAlign=middle;whiteSpace=wrap;rounded=0;fontSize=14;" vertex="1" parent="1">
          <mxGeometry x="650" y="97" width="20" height="30" as="geometry" />
        </mxCell>
        <mxCell id="nolEaMaMSGzeIynyG51u-63" value="" style="shape=cube;whiteSpace=wrap;html=1;boundedLbl=1;backgroundOutline=1;darkOpacity=0.05;darkOpacity2=0.1;size=10;fontSize=14;rotation=90;" vertex="1" parent="1">
          <mxGeometry x="640" y="40" width="50" height="50" as="geometry" />
        </mxCell>
        <mxCell id="nolEaMaMSGzeIynyG51u-64" value="1279" style="text;html=1;align=center;verticalAlign=middle;whiteSpace=wrap;rounded=0;fontSize=14;" vertex="1" parent="1">
          <mxGeometry x="650" y="57" width="20" height="30" as="geometry" />
        </mxCell>
        <mxCell id="nolEaMaMSGzeIynyG51u-65" value="" style="shape=cube;whiteSpace=wrap;html=1;boundedLbl=1;backgroundOutline=1;darkOpacity=0.05;darkOpacity2=0.1;size=10;fontSize=16;rotation=90;" vertex="1" parent="1">
          <mxGeometry x="210" y="390" width="50" height="50" as="geometry" />
        </mxCell>
        <mxCell id="nolEaMaMSGzeIynyG51u-66" value="0" style="text;html=1;align=center;verticalAlign=middle;whiteSpace=wrap;rounded=0;fontSize=16;" vertex="1" parent="1">
          <mxGeometry x="220" y="407" width="20" height="30" as="geometry" />
        </mxCell>
        <mxCell id="nolEaMaMSGzeIynyG51u-67" value="" style="shape=cube;whiteSpace=wrap;html=1;boundedLbl=1;backgroundOutline=1;darkOpacity=0.05;darkOpacity2=0.1;size=10;fontSize=16;rotation=90;" vertex="1" parent="1">
          <mxGeometry x="210" y="350" width="50" height="50" as="geometry" />
        </mxCell>
        <mxCell id="nolEaMaMSGzeIynyG51u-68" value="4" style="text;html=1;align=center;verticalAlign=middle;whiteSpace=wrap;rounded=0;fontSize=16;" vertex="1" parent="1">
          <mxGeometry x="220" y="367" width="20" height="30" as="geometry" />
        </mxCell>
        <mxCell id="nolEaMaMSGzeIynyG51u-69" value="" style="shape=cube;whiteSpace=wrap;html=1;boundedLbl=1;backgroundOutline=1;darkOpacity=0.05;darkOpacity2=0.1;size=10;fontSize=16;rotation=90;" vertex="1" parent="1">
          <mxGeometry x="210" y="310" width="50" height="50" as="geometry" />
        </mxCell>
        <mxCell id="nolEaMaMSGzeIynyG51u-70" value="8" style="text;html=1;align=center;verticalAlign=middle;whiteSpace=wrap;rounded=0;fontSize=16;" vertex="1" parent="1">
          <mxGeometry x="220" y="327" width="20" height="30" as="geometry" />
        </mxCell>
        <mxCell id="nolEaMaMSGzeIynyG51u-71" value="" style="shape=cube;whiteSpace=wrap;html=1;boundedLbl=1;backgroundOutline=1;darkOpacity=0.05;darkOpacity2=0.1;size=10;fontSize=16;rotation=90;" vertex="1" parent="1">
          <mxGeometry x="210" y="270" width="50" height="50" as="geometry" />
        </mxCell>
        <mxCell id="nolEaMaMSGzeIynyG51u-72" value="12" style="text;html=1;align=center;verticalAlign=middle;whiteSpace=wrap;rounded=0;fontSize=16;" vertex="1" parent="1">
          <mxGeometry x="220" y="287" width="20" height="30" as="geometry" />
        </mxCell>
        <mxCell id="nolEaMaMSGzeIynyG51u-73" value="" style="shape=cube;whiteSpace=wrap;html=1;boundedLbl=1;backgroundOutline=1;darkOpacity=0.05;darkOpacity2=0.1;size=10;fontSize=16;rotation=90;" vertex="1" parent="1">
          <mxGeometry x="250" y="390" width="50" height="50" as="geometry" />
        </mxCell>
        <mxCell id="nolEaMaMSGzeIynyG51u-74" value="1" style="text;html=1;align=center;verticalAlign=middle;whiteSpace=wrap;rounded=0;fontSize=16;" vertex="1" parent="1">
          <mxGeometry x="260" y="407" width="20" height="30" as="geometry" />
        </mxCell>
        <mxCell id="nolEaMaMSGzeIynyG51u-75" value="" style="shape=cube;whiteSpace=wrap;html=1;boundedLbl=1;backgroundOutline=1;darkOpacity=0.05;darkOpacity2=0.1;size=10;fontSize=16;rotation=90;" vertex="1" parent="1">
          <mxGeometry x="250" y="350" width="50" height="50" as="geometry" />
        </mxCell>
        <mxCell id="nolEaMaMSGzeIynyG51u-76" value="5" style="text;html=1;align=center;verticalAlign=middle;whiteSpace=wrap;rounded=0;fontSize=16;" vertex="1" parent="1">
          <mxGeometry x="260" y="367" width="20" height="30" as="geometry" />
        </mxCell>
        <mxCell id="nolEaMaMSGzeIynyG51u-77" value="" style="shape=cube;whiteSpace=wrap;html=1;boundedLbl=1;backgroundOutline=1;darkOpacity=0.05;darkOpacity2=0.1;size=10;fontSize=16;rotation=90;" vertex="1" parent="1">
          <mxGeometry x="250" y="310" width="50" height="50" as="geometry" />
        </mxCell>
        <mxCell id="nolEaMaMSGzeIynyG51u-78" value="9" style="text;html=1;align=center;verticalAlign=middle;whiteSpace=wrap;rounded=0;fontSize=16;" vertex="1" parent="1">
          <mxGeometry x="260" y="327" width="20" height="30" as="geometry" />
        </mxCell>
        <mxCell id="nolEaMaMSGzeIynyG51u-79" value="" style="shape=cube;whiteSpace=wrap;html=1;boundedLbl=1;backgroundOutline=1;darkOpacity=0.05;darkOpacity2=0.1;size=10;fontSize=16;rotation=90;" vertex="1" parent="1">
          <mxGeometry x="250" y="270" width="50" height="50" as="geometry" />
        </mxCell>
        <mxCell id="nolEaMaMSGzeIynyG51u-80" value="13" style="text;html=1;align=center;verticalAlign=middle;whiteSpace=wrap;rounded=0;fontSize=16;" vertex="1" parent="1">
          <mxGeometry x="260" y="287" width="20" height="30" as="geometry" />
        </mxCell>
        <mxCell id="nolEaMaMSGzeIynyG51u-81" value="" style="shape=cube;whiteSpace=wrap;html=1;boundedLbl=1;backgroundOutline=1;darkOpacity=0.05;darkOpacity2=0.1;size=10;fontSize=16;rotation=90;" vertex="1" parent="1">
          <mxGeometry x="290" y="390" width="50" height="50" as="geometry" />
        </mxCell>
        <mxCell id="nolEaMaMSGzeIynyG51u-82" value="2" style="text;html=1;align=center;verticalAlign=middle;whiteSpace=wrap;rounded=0;fontSize=16;" vertex="1" parent="1">
          <mxGeometry x="300" y="407" width="20" height="30" as="geometry" />
        </mxCell>
        <mxCell id="nolEaMaMSGzeIynyG51u-83" value="" style="shape=cube;whiteSpace=wrap;html=1;boundedLbl=1;backgroundOutline=1;darkOpacity=0.05;darkOpacity2=0.1;size=10;fontSize=16;rotation=90;" vertex="1" parent="1">
          <mxGeometry x="290" y="350" width="50" height="50" as="geometry" />
        </mxCell>
        <mxCell id="nolEaMaMSGzeIynyG51u-84" value="6" style="text;html=1;align=center;verticalAlign=middle;whiteSpace=wrap;rounded=0;fontSize=16;" vertex="1" parent="1">
          <mxGeometry x="300" y="367" width="20" height="30" as="geometry" />
        </mxCell>
        <mxCell id="nolEaMaMSGzeIynyG51u-85" value="" style="shape=cube;whiteSpace=wrap;html=1;boundedLbl=1;backgroundOutline=1;darkOpacity=0.05;darkOpacity2=0.1;size=10;fontSize=16;rotation=90;" vertex="1" parent="1">
          <mxGeometry x="290" y="310" width="50" height="50" as="geometry" />
        </mxCell>
        <mxCell id="nolEaMaMSGzeIynyG51u-86" value="10" style="text;html=1;align=center;verticalAlign=middle;whiteSpace=wrap;rounded=0;fontSize=16;" vertex="1" parent="1">
          <mxGeometry x="300" y="327" width="20" height="30" as="geometry" />
        </mxCell>
        <mxCell id="nolEaMaMSGzeIynyG51u-87" value="" style="shape=cube;whiteSpace=wrap;html=1;boundedLbl=1;backgroundOutline=1;darkOpacity=0.05;darkOpacity2=0.1;size=10;fontSize=16;rotation=90;" vertex="1" parent="1">
          <mxGeometry x="290" y="270" width="50" height="50" as="geometry" />
        </mxCell>
        <mxCell id="nolEaMaMSGzeIynyG51u-88" value="14" style="text;html=1;align=center;verticalAlign=middle;whiteSpace=wrap;rounded=0;fontSize=16;" vertex="1" parent="1">
          <mxGeometry x="300" y="287" width="20" height="30" as="geometry" />
        </mxCell>
        <mxCell id="nolEaMaMSGzeIynyG51u-89" value="" style="shape=cube;whiteSpace=wrap;html=1;boundedLbl=1;backgroundOutline=1;darkOpacity=0.05;darkOpacity2=0.1;size=10;fontSize=16;rotation=90;" vertex="1" parent="1">
          <mxGeometry x="330" y="390" width="50" height="50" as="geometry" />
        </mxCell>
        <mxCell id="nolEaMaMSGzeIynyG51u-90" value="3" style="text;html=1;align=center;verticalAlign=middle;whiteSpace=wrap;rounded=0;fontSize=16;" vertex="1" parent="1">
          <mxGeometry x="340" y="407" width="20" height="30" as="geometry" />
        </mxCell>
        <mxCell id="nolEaMaMSGzeIynyG51u-91" value="" style="shape=cube;whiteSpace=wrap;html=1;boundedLbl=1;backgroundOutline=1;darkOpacity=0.05;darkOpacity2=0.1;size=10;fontSize=16;rotation=90;" vertex="1" parent="1">
          <mxGeometry x="330" y="350" width="50" height="50" as="geometry" />
        </mxCell>
        <mxCell id="nolEaMaMSGzeIynyG51u-92" value="7" style="text;html=1;align=center;verticalAlign=middle;whiteSpace=wrap;rounded=0;fontSize=16;" vertex="1" parent="1">
          <mxGeometry x="340" y="367" width="20" height="30" as="geometry" />
        </mxCell>
        <mxCell id="nolEaMaMSGzeIynyG51u-93" value="" style="shape=cube;whiteSpace=wrap;html=1;boundedLbl=1;backgroundOutline=1;darkOpacity=0.05;darkOpacity2=0.1;size=10;fontSize=16;rotation=90;" vertex="1" parent="1">
          <mxGeometry x="330" y="310" width="50" height="50" as="geometry" />
        </mxCell>
        <mxCell id="nolEaMaMSGzeIynyG51u-94" value="11" style="text;html=1;align=center;verticalAlign=middle;whiteSpace=wrap;rounded=0;fontSize=16;" vertex="1" parent="1">
          <mxGeometry x="340" y="327" width="20" height="30" as="geometry" />
        </mxCell>
        <mxCell id="nolEaMaMSGzeIynyG51u-95" value="" style="shape=cube;whiteSpace=wrap;html=1;boundedLbl=1;backgroundOutline=1;darkOpacity=0.05;darkOpacity2=0.1;size=10;fontSize=16;rotation=90;" vertex="1" parent="1">
          <mxGeometry x="330" y="270" width="50" height="50" as="geometry" />
        </mxCell>
        <mxCell id="nolEaMaMSGzeIynyG51u-96" value="15" style="text;html=1;align=center;verticalAlign=middle;whiteSpace=wrap;rounded=0;fontSize=16;" vertex="1" parent="1">
          <mxGeometry x="340" y="287" width="20" height="30" as="geometry" />
        </mxCell>
        <mxCell id="nolEaMaMSGzeIynyG51u-97" value="1" style="text;html=1;align=center;verticalAlign=middle;whiteSpace=wrap;rounded=0;fontSize=16;" vertex="1" parent="1">
          <mxGeometry x="384" y="426" width="17" height="20" as="geometry" />
        </mxCell>
      </root>
    </mxGraphModel>
  </diagram>
  <diagram id="MzvjKmVA5oOBwE3aAC6B" name="Page-2">
    <mxGraphModel dx="1348" dy="2024" grid="1" gridSize="10" guides="1" tooltips="1" connect="1" arrows="1" fold="1" page="1" pageScale="1" pageWidth="827" pageHeight="1169" math="1" shadow="0">
      <root>
        <mxCell id="0" />
        <mxCell id="1" parent="0" />
        <mxCell id="o3m-9pCvDbEGsgj16WtE-1" value="" style="endArrow=none;dashed=1;html=1;dashPattern=1 3;strokeWidth=2;rounded=0;fontSize=22;" edge="1" parent="1">
          <mxGeometry width="50" height="50" relative="1" as="geometry">
            <mxPoint x="1280" y="180" as="sourcePoint" />
            <mxPoint x="1045" y="350" as="targetPoint" />
          </mxGeometry>
        </mxCell>
        <mxCell id="o3m-9pCvDbEGsgj16WtE-2" value="0" style="text;html=1;align=center;verticalAlign=middle;whiteSpace=wrap;rounded=0;fontSize=16;" vertex="1" parent="1">
          <mxGeometry x="1018" y="368" width="17" height="20" as="geometry" />
        </mxCell>
        <mxCell id="o3m-9pCvDbEGsgj16WtE-3" value="79" style="text;html=1;align=center;verticalAlign=middle;whiteSpace=wrap;rounded=0;fontSize=16;" vertex="1" parent="1">
          <mxGeometry x="1615" y="-62" width="17" height="20" as="geometry" />
        </mxCell>
        <mxCell id="o3m-9pCvDbEGsgj16WtE-4" value="" style="shape=cube;whiteSpace=wrap;html=1;boundedLbl=1;backgroundOutline=1;darkOpacity=0.05;darkOpacity2=0.1;size=10;fontSize=16;rotation=90;" vertex="1" parent="1">
          <mxGeometry x="870" y="310" width="50" height="50" as="geometry" />
        </mxCell>
        <mxCell id="o3m-9pCvDbEGsgj16WtE-5" value="0" style="text;html=1;align=center;verticalAlign=middle;whiteSpace=wrap;rounded=0;fontSize=16;" vertex="1" parent="1">
          <mxGeometry x="880" y="327" width="20" height="30" as="geometry" />
        </mxCell>
        <mxCell id="o3m-9pCvDbEGsgj16WtE-6" value="" style="shape=cube;whiteSpace=wrap;html=1;boundedLbl=1;backgroundOutline=1;darkOpacity=0.05;darkOpacity2=0.1;size=10;fontSize=16;rotation=90;" vertex="1" parent="1">
          <mxGeometry x="870" y="270" width="50" height="50" as="geometry" />
        </mxCell>
        <mxCell id="o3m-9pCvDbEGsgj16WtE-7" value="4" style="text;html=1;align=center;verticalAlign=middle;whiteSpace=wrap;rounded=0;fontSize=16;" vertex="1" parent="1">
          <mxGeometry x="880" y="287" width="20" height="30" as="geometry" />
        </mxCell>
        <mxCell id="o3m-9pCvDbEGsgj16WtE-8" value="" style="shape=cube;whiteSpace=wrap;html=1;boundedLbl=1;backgroundOutline=1;darkOpacity=0.05;darkOpacity2=0.1;size=10;fontSize=16;rotation=90;" vertex="1" parent="1">
          <mxGeometry x="870" y="230" width="50" height="50" as="geometry" />
        </mxCell>
        <mxCell id="o3m-9pCvDbEGsgj16WtE-9" value="8" style="text;html=1;align=center;verticalAlign=middle;whiteSpace=wrap;rounded=0;fontSize=16;" vertex="1" parent="1">
          <mxGeometry x="880" y="247" width="20" height="30" as="geometry" />
        </mxCell>
        <mxCell id="o3m-9pCvDbEGsgj16WtE-10" value="" style="shape=cube;whiteSpace=wrap;html=1;boundedLbl=1;backgroundOutline=1;darkOpacity=0.05;darkOpacity2=0.1;size=10;fontSize=16;rotation=90;" vertex="1" parent="1">
          <mxGeometry x="870" y="190" width="50" height="50" as="geometry" />
        </mxCell>
        <mxCell id="o3m-9pCvDbEGsgj16WtE-11" value="12" style="text;html=1;align=center;verticalAlign=middle;whiteSpace=wrap;rounded=0;fontSize=16;" vertex="1" parent="1">
          <mxGeometry x="880" y="207" width="20" height="30" as="geometry" />
        </mxCell>
        <mxCell id="o3m-9pCvDbEGsgj16WtE-12" value="" style="shape=cube;whiteSpace=wrap;html=1;boundedLbl=1;backgroundOutline=1;darkOpacity=0.05;darkOpacity2=0.1;size=10;fontSize=16;rotation=90;" vertex="1" parent="1">
          <mxGeometry x="910" y="310" width="50" height="50" as="geometry" />
        </mxCell>
        <mxCell id="o3m-9pCvDbEGsgj16WtE-13" value="1" style="text;html=1;align=center;verticalAlign=middle;whiteSpace=wrap;rounded=0;fontSize=16;" vertex="1" parent="1">
          <mxGeometry x="920" y="327" width="20" height="30" as="geometry" />
        </mxCell>
        <mxCell id="o3m-9pCvDbEGsgj16WtE-14" value="" style="shape=cube;whiteSpace=wrap;html=1;boundedLbl=1;backgroundOutline=1;darkOpacity=0.05;darkOpacity2=0.1;size=10;fontSize=16;rotation=90;" vertex="1" parent="1">
          <mxGeometry x="910" y="270" width="50" height="50" as="geometry" />
        </mxCell>
        <mxCell id="o3m-9pCvDbEGsgj16WtE-15" value="5" style="text;html=1;align=center;verticalAlign=middle;whiteSpace=wrap;rounded=0;fontSize=16;" vertex="1" parent="1">
          <mxGeometry x="920" y="287" width="20" height="30" as="geometry" />
        </mxCell>
        <mxCell id="o3m-9pCvDbEGsgj16WtE-16" value="" style="shape=cube;whiteSpace=wrap;html=1;boundedLbl=1;backgroundOutline=1;darkOpacity=0.05;darkOpacity2=0.1;size=10;fontSize=16;rotation=90;" vertex="1" parent="1">
          <mxGeometry x="910" y="230" width="50" height="50" as="geometry" />
        </mxCell>
        <mxCell id="o3m-9pCvDbEGsgj16WtE-17" value="9" style="text;html=1;align=center;verticalAlign=middle;whiteSpace=wrap;rounded=0;fontSize=16;" vertex="1" parent="1">
          <mxGeometry x="920" y="247" width="20" height="30" as="geometry" />
        </mxCell>
        <mxCell id="o3m-9pCvDbEGsgj16WtE-18" value="" style="shape=cube;whiteSpace=wrap;html=1;boundedLbl=1;backgroundOutline=1;darkOpacity=0.05;darkOpacity2=0.1;size=10;fontSize=16;rotation=90;" vertex="1" parent="1">
          <mxGeometry x="910" y="190" width="50" height="50" as="geometry" />
        </mxCell>
        <mxCell id="o3m-9pCvDbEGsgj16WtE-19" value="13" style="text;html=1;align=center;verticalAlign=middle;whiteSpace=wrap;rounded=0;fontSize=16;" vertex="1" parent="1">
          <mxGeometry x="920" y="207" width="20" height="30" as="geometry" />
        </mxCell>
        <mxCell id="o3m-9pCvDbEGsgj16WtE-20" value="" style="shape=cube;whiteSpace=wrap;html=1;boundedLbl=1;backgroundOutline=1;darkOpacity=0.05;darkOpacity2=0.1;size=10;fontSize=16;rotation=90;" vertex="1" parent="1">
          <mxGeometry x="950" y="310" width="50" height="50" as="geometry" />
        </mxCell>
        <mxCell id="o3m-9pCvDbEGsgj16WtE-21" value="2" style="text;html=1;align=center;verticalAlign=middle;whiteSpace=wrap;rounded=0;fontSize=16;" vertex="1" parent="1">
          <mxGeometry x="960" y="327" width="20" height="30" as="geometry" />
        </mxCell>
        <mxCell id="o3m-9pCvDbEGsgj16WtE-22" value="" style="shape=cube;whiteSpace=wrap;html=1;boundedLbl=1;backgroundOutline=1;darkOpacity=0.05;darkOpacity2=0.1;size=10;fontSize=16;rotation=90;" vertex="1" parent="1">
          <mxGeometry x="950" y="270" width="50" height="50" as="geometry" />
        </mxCell>
        <mxCell id="o3m-9pCvDbEGsgj16WtE-23" value="6" style="text;html=1;align=center;verticalAlign=middle;whiteSpace=wrap;rounded=0;fontSize=16;" vertex="1" parent="1">
          <mxGeometry x="960" y="287" width="20" height="30" as="geometry" />
        </mxCell>
        <mxCell id="o3m-9pCvDbEGsgj16WtE-24" value="" style="shape=cube;whiteSpace=wrap;html=1;boundedLbl=1;backgroundOutline=1;darkOpacity=0.05;darkOpacity2=0.1;size=10;fontSize=16;rotation=90;" vertex="1" parent="1">
          <mxGeometry x="950" y="230" width="50" height="50" as="geometry" />
        </mxCell>
        <mxCell id="o3m-9pCvDbEGsgj16WtE-25" value="10" style="text;html=1;align=center;verticalAlign=middle;whiteSpace=wrap;rounded=0;fontSize=16;" vertex="1" parent="1">
          <mxGeometry x="960" y="247" width="20" height="30" as="geometry" />
        </mxCell>
        <mxCell id="o3m-9pCvDbEGsgj16WtE-26" value="" style="shape=cube;whiteSpace=wrap;html=1;boundedLbl=1;backgroundOutline=1;darkOpacity=0.05;darkOpacity2=0.1;size=10;fontSize=16;rotation=90;" vertex="1" parent="1">
          <mxGeometry x="950" y="190" width="50" height="50" as="geometry" />
        </mxCell>
        <mxCell id="o3m-9pCvDbEGsgj16WtE-27" value="14" style="text;html=1;align=center;verticalAlign=middle;whiteSpace=wrap;rounded=0;fontSize=16;" vertex="1" parent="1">
          <mxGeometry x="960" y="207" width="20" height="30" as="geometry" />
        </mxCell>
        <mxCell id="o3m-9pCvDbEGsgj16WtE-28" value="" style="shape=cube;whiteSpace=wrap;html=1;boundedLbl=1;backgroundOutline=1;darkOpacity=0.05;darkOpacity2=0.1;size=10;fontSize=16;rotation=90;" vertex="1" parent="1">
          <mxGeometry x="990" y="310" width="50" height="50" as="geometry" />
        </mxCell>
        <mxCell id="o3m-9pCvDbEGsgj16WtE-29" value="3" style="text;html=1;align=center;verticalAlign=middle;whiteSpace=wrap;rounded=0;fontSize=16;" vertex="1" parent="1">
          <mxGeometry x="1000" y="327" width="20" height="30" as="geometry" />
        </mxCell>
        <mxCell id="o3m-9pCvDbEGsgj16WtE-30" value="" style="shape=cube;whiteSpace=wrap;html=1;boundedLbl=1;backgroundOutline=1;darkOpacity=0.05;darkOpacity2=0.1;size=10;fontSize=16;rotation=90;" vertex="1" parent="1">
          <mxGeometry x="990" y="270" width="50" height="50" as="geometry" />
        </mxCell>
        <mxCell id="o3m-9pCvDbEGsgj16WtE-31" value="7" style="text;html=1;align=center;verticalAlign=middle;whiteSpace=wrap;rounded=0;fontSize=16;" vertex="1" parent="1">
          <mxGeometry x="1000" y="287" width="20" height="30" as="geometry" />
        </mxCell>
        <mxCell id="o3m-9pCvDbEGsgj16WtE-32" value="" style="shape=cube;whiteSpace=wrap;html=1;boundedLbl=1;backgroundOutline=1;darkOpacity=0.05;darkOpacity2=0.1;size=10;fontSize=16;rotation=90;" vertex="1" parent="1">
          <mxGeometry x="990" y="230" width="50" height="50" as="geometry" />
        </mxCell>
        <mxCell id="o3m-9pCvDbEGsgj16WtE-33" value="11" style="text;html=1;align=center;verticalAlign=middle;whiteSpace=wrap;rounded=0;fontSize=16;" vertex="1" parent="1">
          <mxGeometry x="1000" y="247" width="20" height="30" as="geometry" />
        </mxCell>
        <mxCell id="o3m-9pCvDbEGsgj16WtE-34" value="" style="shape=cube;whiteSpace=wrap;html=1;boundedLbl=1;backgroundOutline=1;darkOpacity=0.05;darkOpacity2=0.1;size=10;fontSize=16;rotation=90;" vertex="1" parent="1">
          <mxGeometry x="990" y="190" width="50" height="50" as="geometry" />
        </mxCell>
        <mxCell id="o3m-9pCvDbEGsgj16WtE-35" value="15" style="text;html=1;align=center;verticalAlign=middle;whiteSpace=wrap;rounded=0;fontSize=16;" vertex="1" parent="1">
          <mxGeometry x="1000" y="207" width="20" height="30" as="geometry" />
        </mxCell>
        <mxCell id="o3m-9pCvDbEGsgj16WtE-36" value="" style="shape=cube;whiteSpace=wrap;html=1;boundedLbl=1;backgroundOutline=1;darkOpacity=0.05;darkOpacity2=0.1;size=10;fontSize=14;rotation=90;" vertex="1" parent="1">
          <mxGeometry x="1447" y="-108" width="50" height="50" as="geometry" />
        </mxCell>
        <mxCell id="o3m-9pCvDbEGsgj16WtE-37" value="1264" style="text;html=1;align=center;verticalAlign=middle;whiteSpace=wrap;rounded=0;fontSize=14;" vertex="1" parent="1">
          <mxGeometry x="1457" y="-91" width="20" height="30" as="geometry" />
        </mxCell>
        <mxCell id="o3m-9pCvDbEGsgj16WtE-38" value="" style="shape=cube;whiteSpace=wrap;html=1;boundedLbl=1;backgroundOutline=1;darkOpacity=0.05;darkOpacity2=0.1;size=10;fontSize=14;rotation=90;" vertex="1" parent="1">
          <mxGeometry x="1447" y="-148" width="50" height="50" as="geometry" />
        </mxCell>
        <mxCell id="o3m-9pCvDbEGsgj16WtE-39" value="1268" style="text;html=1;align=center;verticalAlign=middle;whiteSpace=wrap;rounded=0;fontSize=14;" vertex="1" parent="1">
          <mxGeometry x="1457" y="-131" width="20" height="30" as="geometry" />
        </mxCell>
        <mxCell id="o3m-9pCvDbEGsgj16WtE-40" value="" style="shape=cube;whiteSpace=wrap;html=1;boundedLbl=1;backgroundOutline=1;darkOpacity=0.05;darkOpacity2=0.1;size=10;fontSize=14;rotation=90;" vertex="1" parent="1">
          <mxGeometry x="1447" y="-188" width="50" height="50" as="geometry" />
        </mxCell>
        <mxCell id="o3m-9pCvDbEGsgj16WtE-41" value="1272" style="text;html=1;align=center;verticalAlign=middle;whiteSpace=wrap;rounded=0;fontSize=14;" vertex="1" parent="1">
          <mxGeometry x="1457" y="-171" width="20" height="30" as="geometry" />
        </mxCell>
        <mxCell id="o3m-9pCvDbEGsgj16WtE-42" value="" style="shape=cube;whiteSpace=wrap;html=1;boundedLbl=1;backgroundOutline=1;darkOpacity=0.05;darkOpacity2=0.1;size=10;fontSize=14;rotation=90;" vertex="1" parent="1">
          <mxGeometry x="1447" y="-228" width="50" height="50" as="geometry" />
        </mxCell>
        <mxCell id="o3m-9pCvDbEGsgj16WtE-43" value="1276" style="text;html=1;align=center;verticalAlign=middle;whiteSpace=wrap;rounded=0;fontSize=14;" vertex="1" parent="1">
          <mxGeometry x="1457" y="-211" width="20" height="30" as="geometry" />
        </mxCell>
        <mxCell id="o3m-9pCvDbEGsgj16WtE-44" value="" style="shape=cube;whiteSpace=wrap;html=1;boundedLbl=1;backgroundOutline=1;darkOpacity=0.05;darkOpacity2=0.1;size=10;fontSize=14;rotation=90;" vertex="1" parent="1">
          <mxGeometry x="1487" y="-108" width="50" height="50" as="geometry" />
        </mxCell>
        <mxCell id="o3m-9pCvDbEGsgj16WtE-45" value="1265" style="text;html=1;align=center;verticalAlign=middle;whiteSpace=wrap;rounded=0;fontSize=14;" vertex="1" parent="1">
          <mxGeometry x="1497" y="-91" width="20" height="30" as="geometry" />
        </mxCell>
        <mxCell id="o3m-9pCvDbEGsgj16WtE-46" value="" style="shape=cube;whiteSpace=wrap;html=1;boundedLbl=1;backgroundOutline=1;darkOpacity=0.05;darkOpacity2=0.1;size=10;fontSize=14;rotation=90;" vertex="1" parent="1">
          <mxGeometry x="1487" y="-148" width="50" height="50" as="geometry" />
        </mxCell>
        <mxCell id="o3m-9pCvDbEGsgj16WtE-47" value="1269" style="text;html=1;align=center;verticalAlign=middle;whiteSpace=wrap;rounded=0;fontSize=14;" vertex="1" parent="1">
          <mxGeometry x="1497" y="-131" width="20" height="30" as="geometry" />
        </mxCell>
        <mxCell id="o3m-9pCvDbEGsgj16WtE-48" value="" style="shape=cube;whiteSpace=wrap;html=1;boundedLbl=1;backgroundOutline=1;darkOpacity=0.05;darkOpacity2=0.1;size=10;fontSize=14;rotation=90;" vertex="1" parent="1">
          <mxGeometry x="1487" y="-188" width="50" height="50" as="geometry" />
        </mxCell>
        <mxCell id="o3m-9pCvDbEGsgj16WtE-49" value="1273" style="text;html=1;align=center;verticalAlign=middle;whiteSpace=wrap;rounded=0;fontSize=14;" vertex="1" parent="1">
          <mxGeometry x="1497" y="-171" width="20" height="30" as="geometry" />
        </mxCell>
        <mxCell id="o3m-9pCvDbEGsgj16WtE-50" value="" style="shape=cube;whiteSpace=wrap;html=1;boundedLbl=1;backgroundOutline=1;darkOpacity=0.05;darkOpacity2=0.1;size=10;fontSize=14;rotation=90;" vertex="1" parent="1">
          <mxGeometry x="1487" y="-228" width="50" height="50" as="geometry" />
        </mxCell>
        <mxCell id="o3m-9pCvDbEGsgj16WtE-51" value="1277" style="text;html=1;align=center;verticalAlign=middle;whiteSpace=wrap;rounded=0;fontSize=14;" vertex="1" parent="1">
          <mxGeometry x="1497" y="-211" width="20" height="30" as="geometry" />
        </mxCell>
        <mxCell id="o3m-9pCvDbEGsgj16WtE-52" value="" style="shape=cube;whiteSpace=wrap;html=1;boundedLbl=1;backgroundOutline=1;darkOpacity=0.05;darkOpacity2=0.1;size=10;fontSize=14;rotation=90;" vertex="1" parent="1">
          <mxGeometry x="1527" y="-108" width="50" height="50" as="geometry" />
        </mxCell>
        <mxCell id="o3m-9pCvDbEGsgj16WtE-53" value="1266" style="text;html=1;align=center;verticalAlign=middle;whiteSpace=wrap;rounded=0;fontSize=14;" vertex="1" parent="1">
          <mxGeometry x="1537" y="-91" width="20" height="30" as="geometry" />
        </mxCell>
        <mxCell id="o3m-9pCvDbEGsgj16WtE-54" value="" style="shape=cube;whiteSpace=wrap;html=1;boundedLbl=1;backgroundOutline=1;darkOpacity=0.05;darkOpacity2=0.1;size=10;fontSize=14;rotation=90;" vertex="1" parent="1">
          <mxGeometry x="1527" y="-148" width="50" height="50" as="geometry" />
        </mxCell>
        <mxCell id="o3m-9pCvDbEGsgj16WtE-55" value="1270" style="text;html=1;align=center;verticalAlign=middle;whiteSpace=wrap;rounded=0;fontSize=14;" vertex="1" parent="1">
          <mxGeometry x="1537" y="-131" width="20" height="30" as="geometry" />
        </mxCell>
        <mxCell id="o3m-9pCvDbEGsgj16WtE-56" value="" style="shape=cube;whiteSpace=wrap;html=1;boundedLbl=1;backgroundOutline=1;darkOpacity=0.05;darkOpacity2=0.1;size=10;fontSize=14;rotation=90;" vertex="1" parent="1">
          <mxGeometry x="1527" y="-188" width="50" height="50" as="geometry" />
        </mxCell>
        <mxCell id="o3m-9pCvDbEGsgj16WtE-57" value="1274" style="text;html=1;align=center;verticalAlign=middle;whiteSpace=wrap;rounded=0;fontSize=14;" vertex="1" parent="1">
          <mxGeometry x="1537" y="-171" width="20" height="30" as="geometry" />
        </mxCell>
        <mxCell id="o3m-9pCvDbEGsgj16WtE-58" value="" style="shape=cube;whiteSpace=wrap;html=1;boundedLbl=1;backgroundOutline=1;darkOpacity=0.05;darkOpacity2=0.1;size=10;fontSize=14;rotation=90;" vertex="1" parent="1">
          <mxGeometry x="1527" y="-228" width="50" height="50" as="geometry" />
        </mxCell>
        <mxCell id="o3m-9pCvDbEGsgj16WtE-59" value="1278" style="text;html=1;align=center;verticalAlign=middle;whiteSpace=wrap;rounded=0;fontSize=14;" vertex="1" parent="1">
          <mxGeometry x="1537" y="-211" width="20" height="30" as="geometry" />
        </mxCell>
        <mxCell id="o3m-9pCvDbEGsgj16WtE-60" value="" style="shape=cube;whiteSpace=wrap;html=1;boundedLbl=1;backgroundOutline=1;darkOpacity=0.05;darkOpacity2=0.1;size=10;fontSize=14;rotation=90;" vertex="1" parent="1">
          <mxGeometry x="1567" y="-108" width="50" height="50" as="geometry" />
        </mxCell>
        <mxCell id="o3m-9pCvDbEGsgj16WtE-61" value="1267" style="text;html=1;align=center;verticalAlign=middle;whiteSpace=wrap;rounded=0;fontSize=14;" vertex="1" parent="1">
          <mxGeometry x="1577" y="-91" width="20" height="30" as="geometry" />
        </mxCell>
        <mxCell id="o3m-9pCvDbEGsgj16WtE-62" value="" style="shape=cube;whiteSpace=wrap;html=1;boundedLbl=1;backgroundOutline=1;darkOpacity=0.05;darkOpacity2=0.1;size=10;fontSize=14;rotation=90;" vertex="1" parent="1">
          <mxGeometry x="1567" y="-148" width="50" height="50" as="geometry" />
        </mxCell>
        <mxCell id="o3m-9pCvDbEGsgj16WtE-63" value="1271" style="text;html=1;align=center;verticalAlign=middle;whiteSpace=wrap;rounded=0;fontSize=14;" vertex="1" parent="1">
          <mxGeometry x="1577" y="-131" width="20" height="30" as="geometry" />
        </mxCell>
        <mxCell id="o3m-9pCvDbEGsgj16WtE-64" value="" style="shape=cube;whiteSpace=wrap;html=1;boundedLbl=1;backgroundOutline=1;darkOpacity=0.05;darkOpacity2=0.1;size=10;fontSize=14;rotation=90;" vertex="1" parent="1">
          <mxGeometry x="1567" y="-188" width="50" height="50" as="geometry" />
        </mxCell>
        <mxCell id="o3m-9pCvDbEGsgj16WtE-65" value="1275" style="text;html=1;align=center;verticalAlign=middle;whiteSpace=wrap;rounded=0;fontSize=14;" vertex="1" parent="1">
          <mxGeometry x="1577" y="-171" width="20" height="30" as="geometry" />
        </mxCell>
        <mxCell id="o3m-9pCvDbEGsgj16WtE-66" value="" style="shape=cube;whiteSpace=wrap;html=1;boundedLbl=1;backgroundOutline=1;darkOpacity=0.05;darkOpacity2=0.1;size=10;fontSize=14;rotation=90;" vertex="1" parent="1">
          <mxGeometry x="1567" y="-228" width="50" height="50" as="geometry" />
        </mxCell>
        <mxCell id="o3m-9pCvDbEGsgj16WtE-67" value="1279" style="text;html=1;align=center;verticalAlign=middle;whiteSpace=wrap;rounded=0;fontSize=14;" vertex="1" parent="1">
          <mxGeometry x="1577" y="-211" width="20" height="30" as="geometry" />
        </mxCell>
        <mxCell id="o3m-9pCvDbEGsgj16WtE-68" value="" style="shape=cube;whiteSpace=wrap;html=1;boundedLbl=1;backgroundOutline=1;darkOpacity=0.05;darkOpacity2=0.1;size=10;fontSize=16;rotation=90;" vertex="1" parent="1">
          <mxGeometry x="860" y="320" width="50" height="50" as="geometry" />
        </mxCell>
        <mxCell id="o3m-9pCvDbEGsgj16WtE-69" value="0" style="text;html=1;align=center;verticalAlign=middle;whiteSpace=wrap;rounded=0;fontSize=16;" vertex="1" parent="1">
          <mxGeometry x="870" y="337" width="20" height="30" as="geometry" />
        </mxCell>
        <mxCell id="o3m-9pCvDbEGsgj16WtE-70" value="" style="shape=cube;whiteSpace=wrap;html=1;boundedLbl=1;backgroundOutline=1;darkOpacity=0.05;darkOpacity2=0.1;size=10;fontSize=16;rotation=90;" vertex="1" parent="1">
          <mxGeometry x="860" y="280" width="50" height="50" as="geometry" />
        </mxCell>
        <mxCell id="o3m-9pCvDbEGsgj16WtE-71" value="4" style="text;html=1;align=center;verticalAlign=middle;whiteSpace=wrap;rounded=0;fontSize=16;" vertex="1" parent="1">
          <mxGeometry x="870" y="297" width="20" height="30" as="geometry" />
        </mxCell>
        <mxCell id="o3m-9pCvDbEGsgj16WtE-72" value="" style="shape=cube;whiteSpace=wrap;html=1;boundedLbl=1;backgroundOutline=1;darkOpacity=0.05;darkOpacity2=0.1;size=10;fontSize=16;rotation=90;" vertex="1" parent="1">
          <mxGeometry x="860" y="240" width="50" height="50" as="geometry" />
        </mxCell>
        <mxCell id="o3m-9pCvDbEGsgj16WtE-73" value="8" style="text;html=1;align=center;verticalAlign=middle;whiteSpace=wrap;rounded=0;fontSize=16;" vertex="1" parent="1">
          <mxGeometry x="870" y="257" width="20" height="30" as="geometry" />
        </mxCell>
        <mxCell id="o3m-9pCvDbEGsgj16WtE-74" value="" style="shape=cube;whiteSpace=wrap;html=1;boundedLbl=1;backgroundOutline=1;darkOpacity=0.05;darkOpacity2=0.1;size=10;fontSize=16;rotation=90;" vertex="1" parent="1">
          <mxGeometry x="860" y="200" width="50" height="50" as="geometry" />
        </mxCell>
        <mxCell id="o3m-9pCvDbEGsgj16WtE-75" value="12" style="text;html=1;align=center;verticalAlign=middle;whiteSpace=wrap;rounded=0;fontSize=16;" vertex="1" parent="1">
          <mxGeometry x="870" y="217" width="20" height="30" as="geometry" />
        </mxCell>
        <mxCell id="o3m-9pCvDbEGsgj16WtE-76" value="" style="shape=cube;whiteSpace=wrap;html=1;boundedLbl=1;backgroundOutline=1;darkOpacity=0.05;darkOpacity2=0.1;size=10;fontSize=16;rotation=90;" vertex="1" parent="1">
          <mxGeometry x="900" y="320" width="50" height="50" as="geometry" />
        </mxCell>
        <mxCell id="o3m-9pCvDbEGsgj16WtE-77" value="1" style="text;html=1;align=center;verticalAlign=middle;whiteSpace=wrap;rounded=0;fontSize=16;" vertex="1" parent="1">
          <mxGeometry x="910" y="337" width="20" height="30" as="geometry" />
        </mxCell>
        <mxCell id="o3m-9pCvDbEGsgj16WtE-78" value="" style="shape=cube;whiteSpace=wrap;html=1;boundedLbl=1;backgroundOutline=1;darkOpacity=0.05;darkOpacity2=0.1;size=10;fontSize=16;rotation=90;" vertex="1" parent="1">
          <mxGeometry x="900" y="280" width="50" height="50" as="geometry" />
        </mxCell>
        <mxCell id="o3m-9pCvDbEGsgj16WtE-79" value="5" style="text;html=1;align=center;verticalAlign=middle;whiteSpace=wrap;rounded=0;fontSize=16;" vertex="1" parent="1">
          <mxGeometry x="910" y="297" width="20" height="30" as="geometry" />
        </mxCell>
        <mxCell id="o3m-9pCvDbEGsgj16WtE-80" value="" style="shape=cube;whiteSpace=wrap;html=1;boundedLbl=1;backgroundOutline=1;darkOpacity=0.05;darkOpacity2=0.1;size=10;fontSize=16;rotation=90;" vertex="1" parent="1">
          <mxGeometry x="900" y="240" width="50" height="50" as="geometry" />
        </mxCell>
        <mxCell id="o3m-9pCvDbEGsgj16WtE-81" value="9" style="text;html=1;align=center;verticalAlign=middle;whiteSpace=wrap;rounded=0;fontSize=16;" vertex="1" parent="1">
          <mxGeometry x="910" y="257" width="20" height="30" as="geometry" />
        </mxCell>
        <mxCell id="o3m-9pCvDbEGsgj16WtE-82" value="" style="shape=cube;whiteSpace=wrap;html=1;boundedLbl=1;backgroundOutline=1;darkOpacity=0.05;darkOpacity2=0.1;size=10;fontSize=16;rotation=90;" vertex="1" parent="1">
          <mxGeometry x="900" y="200" width="50" height="50" as="geometry" />
        </mxCell>
        <mxCell id="o3m-9pCvDbEGsgj16WtE-83" value="13" style="text;html=1;align=center;verticalAlign=middle;whiteSpace=wrap;rounded=0;fontSize=16;" vertex="1" parent="1">
          <mxGeometry x="910" y="217" width="20" height="30" as="geometry" />
        </mxCell>
        <mxCell id="o3m-9pCvDbEGsgj16WtE-84" value="" style="shape=cube;whiteSpace=wrap;html=1;boundedLbl=1;backgroundOutline=1;darkOpacity=0.05;darkOpacity2=0.1;size=10;fontSize=16;rotation=90;" vertex="1" parent="1">
          <mxGeometry x="940" y="320" width="50" height="50" as="geometry" />
        </mxCell>
        <mxCell id="o3m-9pCvDbEGsgj16WtE-85" value="2" style="text;html=1;align=center;verticalAlign=middle;whiteSpace=wrap;rounded=0;fontSize=16;" vertex="1" parent="1">
          <mxGeometry x="950" y="337" width="20" height="30" as="geometry" />
        </mxCell>
        <mxCell id="o3m-9pCvDbEGsgj16WtE-86" value="" style="shape=cube;whiteSpace=wrap;html=1;boundedLbl=1;backgroundOutline=1;darkOpacity=0.05;darkOpacity2=0.1;size=10;fontSize=16;rotation=90;" vertex="1" parent="1">
          <mxGeometry x="940" y="280" width="50" height="50" as="geometry" />
        </mxCell>
        <mxCell id="o3m-9pCvDbEGsgj16WtE-87" value="6" style="text;html=1;align=center;verticalAlign=middle;whiteSpace=wrap;rounded=0;fontSize=16;" vertex="1" parent="1">
          <mxGeometry x="950" y="297" width="20" height="30" as="geometry" />
        </mxCell>
        <mxCell id="o3m-9pCvDbEGsgj16WtE-88" value="" style="shape=cube;whiteSpace=wrap;html=1;boundedLbl=1;backgroundOutline=1;darkOpacity=0.05;darkOpacity2=0.1;size=10;fontSize=16;rotation=90;" vertex="1" parent="1">
          <mxGeometry x="940" y="240" width="50" height="50" as="geometry" />
        </mxCell>
        <mxCell id="o3m-9pCvDbEGsgj16WtE-89" value="10" style="text;html=1;align=center;verticalAlign=middle;whiteSpace=wrap;rounded=0;fontSize=16;" vertex="1" parent="1">
          <mxGeometry x="950" y="257" width="20" height="30" as="geometry" />
        </mxCell>
        <mxCell id="o3m-9pCvDbEGsgj16WtE-90" value="" style="shape=cube;whiteSpace=wrap;html=1;boundedLbl=1;backgroundOutline=1;darkOpacity=0.05;darkOpacity2=0.1;size=10;fontSize=16;rotation=90;" vertex="1" parent="1">
          <mxGeometry x="940" y="200" width="50" height="50" as="geometry" />
        </mxCell>
        <mxCell id="o3m-9pCvDbEGsgj16WtE-91" value="14" style="text;html=1;align=center;verticalAlign=middle;whiteSpace=wrap;rounded=0;fontSize=16;" vertex="1" parent="1">
          <mxGeometry x="950" y="217" width="20" height="30" as="geometry" />
        </mxCell>
        <mxCell id="o3m-9pCvDbEGsgj16WtE-92" value="" style="shape=cube;whiteSpace=wrap;html=1;boundedLbl=1;backgroundOutline=1;darkOpacity=0.05;darkOpacity2=0.1;size=10;fontSize=16;rotation=90;" vertex="1" parent="1">
          <mxGeometry x="980" y="320" width="50" height="50" as="geometry" />
        </mxCell>
        <mxCell id="o3m-9pCvDbEGsgj16WtE-93" value="3" style="text;html=1;align=center;verticalAlign=middle;whiteSpace=wrap;rounded=0;fontSize=16;" vertex="1" parent="1">
          <mxGeometry x="990" y="337" width="20" height="30" as="geometry" />
        </mxCell>
        <mxCell id="o3m-9pCvDbEGsgj16WtE-94" value="" style="shape=cube;whiteSpace=wrap;html=1;boundedLbl=1;backgroundOutline=1;darkOpacity=0.05;darkOpacity2=0.1;size=10;fontSize=16;rotation=90;" vertex="1" parent="1">
          <mxGeometry x="980" y="280" width="50" height="50" as="geometry" />
        </mxCell>
        <mxCell id="o3m-9pCvDbEGsgj16WtE-95" value="7" style="text;html=1;align=center;verticalAlign=middle;whiteSpace=wrap;rounded=0;fontSize=16;" vertex="1" parent="1">
          <mxGeometry x="990" y="297" width="20" height="30" as="geometry" />
        </mxCell>
        <mxCell id="o3m-9pCvDbEGsgj16WtE-96" value="" style="shape=cube;whiteSpace=wrap;html=1;boundedLbl=1;backgroundOutline=1;darkOpacity=0.05;darkOpacity2=0.1;size=10;fontSize=16;rotation=90;" vertex="1" parent="1">
          <mxGeometry x="980" y="240" width="50" height="50" as="geometry" />
        </mxCell>
        <mxCell id="o3m-9pCvDbEGsgj16WtE-97" value="11" style="text;html=1;align=center;verticalAlign=middle;whiteSpace=wrap;rounded=0;fontSize=16;" vertex="1" parent="1">
          <mxGeometry x="990" y="257" width="20" height="30" as="geometry" />
        </mxCell>
        <mxCell id="o3m-9pCvDbEGsgj16WtE-98" value="" style="shape=cube;whiteSpace=wrap;html=1;boundedLbl=1;backgroundOutline=1;darkOpacity=0.05;darkOpacity2=0.1;size=10;fontSize=16;rotation=90;" vertex="1" parent="1">
          <mxGeometry x="980" y="200" width="50" height="50" as="geometry" />
        </mxCell>
        <mxCell id="o3m-9pCvDbEGsgj16WtE-99" value="15" style="text;html=1;align=center;verticalAlign=middle;whiteSpace=wrap;rounded=0;fontSize=16;" vertex="1" parent="1">
          <mxGeometry x="990" y="217" width="20" height="30" as="geometry" />
        </mxCell>
        <mxCell id="o3m-9pCvDbEGsgj16WtE-100" value="1" style="text;html=1;align=center;verticalAlign=middle;whiteSpace=wrap;rounded=0;fontSize=16;" vertex="1" parent="1">
          <mxGeometry x="1034" y="356" width="17" height="20" as="geometry" />
        </mxCell>
        <mxCell id="o3m-9pCvDbEGsgj16WtE-167" value="64" style="text;html=1;align=center;verticalAlign=middle;whiteSpace=wrap;rounded=0;fontSize=14;" vertex="1" parent="1">
          <mxGeometry x="1350" y="127" width="17" height="20" as="geometry" />
        </mxCell>
        <mxCell id="o3m-9pCvDbEGsgj16WtE-168" value="" style="shape=cube;whiteSpace=wrap;html=1;boundedLbl=1;backgroundOutline=1;darkOpacity=0.05;darkOpacity2=0.1;size=10;fontSize=14;rotation=90;" vertex="1" parent="1">
          <mxGeometry x="1200" y="70" width="50" height="50" as="geometry" />
        </mxCell>
        <mxCell id="o3m-9pCvDbEGsgj16WtE-169" value="0" style="text;html=1;align=center;verticalAlign=middle;whiteSpace=wrap;rounded=0;fontSize=14;" vertex="1" parent="1">
          <mxGeometry x="1210" y="87" width="20" height="30" as="geometry" />
        </mxCell>
        <mxCell id="o3m-9pCvDbEGsgj16WtE-170" value="" style="shape=cube;whiteSpace=wrap;html=1;boundedLbl=1;backgroundOutline=1;darkOpacity=0.05;darkOpacity2=0.1;size=10;fontSize=14;rotation=90;" vertex="1" parent="1">
          <mxGeometry x="1200" y="30" width="50" height="50" as="geometry" />
        </mxCell>
        <mxCell id="o3m-9pCvDbEGsgj16WtE-171" value="4" style="text;html=1;align=center;verticalAlign=middle;whiteSpace=wrap;rounded=0;fontSize=14;" vertex="1" parent="1">
          <mxGeometry x="1210" y="47" width="20" height="30" as="geometry" />
        </mxCell>
        <mxCell id="o3m-9pCvDbEGsgj16WtE-172" value="" style="shape=cube;whiteSpace=wrap;html=1;boundedLbl=1;backgroundOutline=1;darkOpacity=0.05;darkOpacity2=0.1;size=10;fontSize=14;rotation=90;" vertex="1" parent="1">
          <mxGeometry x="1200" y="-10" width="50" height="50" as="geometry" />
        </mxCell>
        <mxCell id="o3m-9pCvDbEGsgj16WtE-173" value="8" style="text;html=1;align=center;verticalAlign=middle;whiteSpace=wrap;rounded=0;fontSize=14;" vertex="1" parent="1">
          <mxGeometry x="1210" y="7" width="20" height="30" as="geometry" />
        </mxCell>
        <mxCell id="o3m-9pCvDbEGsgj16WtE-174" value="12" style="text;html=1;align=center;verticalAlign=middle;whiteSpace=wrap;rounded=0;fontSize=14;" vertex="1" parent="1">
          <mxGeometry x="1210" y="-33" width="20" height="30" as="geometry" />
        </mxCell>
        <mxCell id="o3m-9pCvDbEGsgj16WtE-175" value="" style="shape=cube;whiteSpace=wrap;html=1;boundedLbl=1;backgroundOutline=1;darkOpacity=0.05;darkOpacity2=0.1;size=10;fontSize=14;rotation=90;" vertex="1" parent="1">
          <mxGeometry x="1240" y="70" width="50" height="50" as="geometry" />
        </mxCell>
        <mxCell id="o3m-9pCvDbEGsgj16WtE-176" value="1" style="text;html=1;align=center;verticalAlign=middle;whiteSpace=wrap;rounded=0;fontSize=14;" vertex="1" parent="1">
          <mxGeometry x="1250" y="87" width="20" height="30" as="geometry" />
        </mxCell>
        <mxCell id="o3m-9pCvDbEGsgj16WtE-177" value="" style="shape=cube;whiteSpace=wrap;html=1;boundedLbl=1;backgroundOutline=1;darkOpacity=0.05;darkOpacity2=0.1;size=10;fontSize=14;rotation=90;" vertex="1" parent="1">
          <mxGeometry x="1240" y="30" width="50" height="50" as="geometry" />
        </mxCell>
        <mxCell id="o3m-9pCvDbEGsgj16WtE-178" value="5" style="text;html=1;align=center;verticalAlign=middle;whiteSpace=wrap;rounded=0;fontSize=14;" vertex="1" parent="1">
          <mxGeometry x="1250" y="47" width="20" height="30" as="geometry" />
        </mxCell>
        <mxCell id="o3m-9pCvDbEGsgj16WtE-179" value="" style="shape=cube;whiteSpace=wrap;html=1;boundedLbl=1;backgroundOutline=1;darkOpacity=0.05;darkOpacity2=0.1;size=10;fontSize=14;rotation=90;" vertex="1" parent="1">
          <mxGeometry x="1240" y="-10" width="50" height="50" as="geometry" />
        </mxCell>
        <mxCell id="o3m-9pCvDbEGsgj16WtE-180" value="9" style="text;html=1;align=center;verticalAlign=middle;whiteSpace=wrap;rounded=0;fontSize=14;" vertex="1" parent="1">
          <mxGeometry x="1250" y="7" width="20" height="30" as="geometry" />
        </mxCell>
        <mxCell id="o3m-9pCvDbEGsgj16WtE-181" value="13" style="text;html=1;align=center;verticalAlign=middle;whiteSpace=wrap;rounded=0;fontSize=14;" vertex="1" parent="1">
          <mxGeometry x="1250" y="-33" width="20" height="30" as="geometry" />
        </mxCell>
        <mxCell id="o3m-9pCvDbEGsgj16WtE-182" value="" style="shape=cube;whiteSpace=wrap;html=1;boundedLbl=1;backgroundOutline=1;darkOpacity=0.05;darkOpacity2=0.1;size=10;fontSize=14;rotation=90;" vertex="1" parent="1">
          <mxGeometry x="1280" y="70" width="50" height="50" as="geometry" />
        </mxCell>
        <mxCell id="o3m-9pCvDbEGsgj16WtE-183" value="2" style="text;html=1;align=center;verticalAlign=middle;whiteSpace=wrap;rounded=0;fontSize=14;" vertex="1" parent="1">
          <mxGeometry x="1290" y="87" width="20" height="30" as="geometry" />
        </mxCell>
        <mxCell id="o3m-9pCvDbEGsgj16WtE-184" value="" style="shape=cube;whiteSpace=wrap;html=1;boundedLbl=1;backgroundOutline=1;darkOpacity=0.05;darkOpacity2=0.1;size=10;fontSize=14;rotation=90;" vertex="1" parent="1">
          <mxGeometry x="1280" y="30" width="50" height="50" as="geometry" />
        </mxCell>
        <mxCell id="o3m-9pCvDbEGsgj16WtE-185" value="6" style="text;html=1;align=center;verticalAlign=middle;whiteSpace=wrap;rounded=0;fontSize=14;" vertex="1" parent="1">
          <mxGeometry x="1290" y="47" width="20" height="30" as="geometry" />
        </mxCell>
        <mxCell id="o3m-9pCvDbEGsgj16WtE-186" value="" style="shape=cube;whiteSpace=wrap;html=1;boundedLbl=1;backgroundOutline=1;darkOpacity=0.05;darkOpacity2=0.1;size=10;fontSize=14;rotation=90;" vertex="1" parent="1">
          <mxGeometry x="1280" y="-10" width="50" height="50" as="geometry" />
        </mxCell>
        <mxCell id="o3m-9pCvDbEGsgj16WtE-187" value="10" style="text;html=1;align=center;verticalAlign=middle;whiteSpace=wrap;rounded=0;fontSize=14;" vertex="1" parent="1">
          <mxGeometry x="1290" y="7" width="20" height="30" as="geometry" />
        </mxCell>
        <mxCell id="o3m-9pCvDbEGsgj16WtE-188" value="14" style="text;html=1;align=center;verticalAlign=middle;whiteSpace=wrap;rounded=0;fontSize=14;" vertex="1" parent="1">
          <mxGeometry x="1290" y="-33" width="20" height="30" as="geometry" />
        </mxCell>
        <mxCell id="o3m-9pCvDbEGsgj16WtE-189" value="3" style="text;html=1;align=center;verticalAlign=middle;whiteSpace=wrap;rounded=0;fontSize=14;" vertex="1" parent="1">
          <mxGeometry x="1330" y="87" width="20" height="30" as="geometry" />
        </mxCell>
        <mxCell id="o3m-9pCvDbEGsgj16WtE-190" value="7" style="text;html=1;align=center;verticalAlign=middle;whiteSpace=wrap;rounded=0;fontSize=14;" vertex="1" parent="1">
          <mxGeometry x="1330" y="47" width="20" height="30" as="geometry" />
        </mxCell>
        <mxCell id="o3m-9pCvDbEGsgj16WtE-191" value="11" style="text;html=1;align=center;verticalAlign=middle;whiteSpace=wrap;rounded=0;fontSize=14;" vertex="1" parent="1">
          <mxGeometry x="1330" y="7" width="20" height="30" as="geometry" />
        </mxCell>
        <mxCell id="o3m-9pCvDbEGsgj16WtE-192" value="15" style="text;html=1;align=center;verticalAlign=middle;whiteSpace=wrap;rounded=0;fontSize=14;" vertex="1" parent="1">
          <mxGeometry x="1330" y="-33" width="20" height="30" as="geometry" />
        </mxCell>
        <mxCell id="o3m-9pCvDbEGsgj16WtE-193" value="" style="shape=cube;whiteSpace=wrap;html=1;boundedLbl=1;backgroundOutline=1;darkOpacity=0.05;darkOpacity2=0.1;size=10;fontSize=14;rotation=90;" vertex="1" parent="1">
          <mxGeometry x="1190" y="80" width="50" height="50" as="geometry" />
        </mxCell>
        <mxCell id="o3m-9pCvDbEGsgj16WtE-194" value="1024" style="text;html=1;align=center;verticalAlign=middle;whiteSpace=wrap;rounded=0;fontSize=14;" vertex="1" parent="1">
          <mxGeometry x="1200" y="97" width="20" height="30" as="geometry" />
        </mxCell>
        <mxCell id="o3m-9pCvDbEGsgj16WtE-195" value="" style="shape=cube;whiteSpace=wrap;html=1;boundedLbl=1;backgroundOutline=1;darkOpacity=0.05;darkOpacity2=0.1;size=10;fontSize=14;rotation=90;" vertex="1" parent="1">
          <mxGeometry x="1190" y="40" width="50" height="50" as="geometry" />
        </mxCell>
        <mxCell id="o3m-9pCvDbEGsgj16WtE-196" value="1028" style="text;html=1;align=center;verticalAlign=middle;whiteSpace=wrap;rounded=0;fontSize=14;" vertex="1" parent="1">
          <mxGeometry x="1200" y="57" width="20" height="30" as="geometry" />
        </mxCell>
        <mxCell id="o3m-9pCvDbEGsgj16WtE-197" value="" style="shape=cube;whiteSpace=wrap;html=1;boundedLbl=1;backgroundOutline=1;darkOpacity=0.05;darkOpacity2=0.1;size=10;fontSize=14;rotation=90;" vertex="1" parent="1">
          <mxGeometry x="1190" width="50" height="50" as="geometry" />
        </mxCell>
        <mxCell id="o3m-9pCvDbEGsgj16WtE-198" value="1032" style="text;html=1;align=center;verticalAlign=middle;whiteSpace=wrap;rounded=0;fontSize=14;" vertex="1" parent="1">
          <mxGeometry x="1200" y="17" width="20" height="30" as="geometry" />
        </mxCell>
        <mxCell id="o3m-9pCvDbEGsgj16WtE-199" value="" style="shape=cube;whiteSpace=wrap;html=1;boundedLbl=1;backgroundOutline=1;darkOpacity=0.05;darkOpacity2=0.1;size=10;fontSize=14;rotation=90;" vertex="1" parent="1">
          <mxGeometry x="1190" y="-40" width="50" height="50" as="geometry" />
        </mxCell>
        <mxCell id="o3m-9pCvDbEGsgj16WtE-200" value="1036" style="text;html=1;align=center;verticalAlign=middle;whiteSpace=wrap;rounded=0;fontSize=14;" vertex="1" parent="1">
          <mxGeometry x="1200" y="-23" width="20" height="30" as="geometry" />
        </mxCell>
        <mxCell id="o3m-9pCvDbEGsgj16WtE-201" value="" style="shape=cube;whiteSpace=wrap;html=1;boundedLbl=1;backgroundOutline=1;darkOpacity=0.05;darkOpacity2=0.1;size=10;fontSize=14;rotation=90;" vertex="1" parent="1">
          <mxGeometry x="1230" y="80" width="50" height="50" as="geometry" />
        </mxCell>
        <mxCell id="o3m-9pCvDbEGsgj16WtE-202" value="1025" style="text;html=1;align=center;verticalAlign=middle;whiteSpace=wrap;rounded=0;fontSize=14;" vertex="1" parent="1">
          <mxGeometry x="1240" y="97" width="20" height="30" as="geometry" />
        </mxCell>
        <mxCell id="o3m-9pCvDbEGsgj16WtE-203" value="" style="shape=cube;whiteSpace=wrap;html=1;boundedLbl=1;backgroundOutline=1;darkOpacity=0.05;darkOpacity2=0.1;size=10;fontSize=14;rotation=90;" vertex="1" parent="1">
          <mxGeometry x="1230" y="40" width="50" height="50" as="geometry" />
        </mxCell>
        <mxCell id="o3m-9pCvDbEGsgj16WtE-204" value="1029" style="text;html=1;align=center;verticalAlign=middle;whiteSpace=wrap;rounded=0;fontSize=14;" vertex="1" parent="1">
          <mxGeometry x="1240" y="57" width="20" height="30" as="geometry" />
        </mxCell>
        <mxCell id="o3m-9pCvDbEGsgj16WtE-205" value="" style="shape=cube;whiteSpace=wrap;html=1;boundedLbl=1;backgroundOutline=1;darkOpacity=0.05;darkOpacity2=0.1;size=10;fontSize=14;rotation=90;" vertex="1" parent="1">
          <mxGeometry x="1230" width="50" height="50" as="geometry" />
        </mxCell>
        <mxCell id="o3m-9pCvDbEGsgj16WtE-206" value="1033" style="text;html=1;align=center;verticalAlign=middle;whiteSpace=wrap;rounded=0;fontSize=14;" vertex="1" parent="1">
          <mxGeometry x="1240" y="17" width="20" height="30" as="geometry" />
        </mxCell>
        <mxCell id="o3m-9pCvDbEGsgj16WtE-207" value="" style="shape=cube;whiteSpace=wrap;html=1;boundedLbl=1;backgroundOutline=1;darkOpacity=0.05;darkOpacity2=0.1;size=10;fontSize=14;rotation=90;" vertex="1" parent="1">
          <mxGeometry x="1230" y="-40" width="50" height="50" as="geometry" />
        </mxCell>
        <mxCell id="o3m-9pCvDbEGsgj16WtE-208" value="1037" style="text;html=1;align=center;verticalAlign=middle;whiteSpace=wrap;rounded=0;fontSize=14;" vertex="1" parent="1">
          <mxGeometry x="1240" y="-23" width="20" height="30" as="geometry" />
        </mxCell>
        <mxCell id="o3m-9pCvDbEGsgj16WtE-209" value="" style="shape=cube;whiteSpace=wrap;html=1;boundedLbl=1;backgroundOutline=1;darkOpacity=0.05;darkOpacity2=0.1;size=10;fontSize=14;rotation=90;" vertex="1" parent="1">
          <mxGeometry x="1270" y="80" width="50" height="50" as="geometry" />
        </mxCell>
        <mxCell id="o3m-9pCvDbEGsgj16WtE-210" value="1026" style="text;html=1;align=center;verticalAlign=middle;whiteSpace=wrap;rounded=0;fontSize=14;" vertex="1" parent="1">
          <mxGeometry x="1280" y="97" width="20" height="30" as="geometry" />
        </mxCell>
        <mxCell id="o3m-9pCvDbEGsgj16WtE-211" value="" style="shape=cube;whiteSpace=wrap;html=1;boundedLbl=1;backgroundOutline=1;darkOpacity=0.05;darkOpacity2=0.1;size=10;fontSize=14;rotation=90;" vertex="1" parent="1">
          <mxGeometry x="1270" y="40" width="50" height="50" as="geometry" />
        </mxCell>
        <mxCell id="o3m-9pCvDbEGsgj16WtE-212" value="1030" style="text;html=1;align=center;verticalAlign=middle;whiteSpace=wrap;rounded=0;fontSize=14;" vertex="1" parent="1">
          <mxGeometry x="1280" y="57" width="20" height="30" as="geometry" />
        </mxCell>
        <mxCell id="o3m-9pCvDbEGsgj16WtE-213" value="" style="shape=cube;whiteSpace=wrap;html=1;boundedLbl=1;backgroundOutline=1;darkOpacity=0.05;darkOpacity2=0.1;size=10;fontSize=14;rotation=90;" vertex="1" parent="1">
          <mxGeometry x="1270" width="50" height="50" as="geometry" />
        </mxCell>
        <mxCell id="o3m-9pCvDbEGsgj16WtE-214" value="1034" style="text;html=1;align=center;verticalAlign=middle;whiteSpace=wrap;rounded=0;fontSize=14;" vertex="1" parent="1">
          <mxGeometry x="1280" y="17" width="20" height="30" as="geometry" />
        </mxCell>
        <mxCell id="o3m-9pCvDbEGsgj16WtE-215" value="" style="shape=cube;whiteSpace=wrap;html=1;boundedLbl=1;backgroundOutline=1;darkOpacity=0.05;darkOpacity2=0.1;size=10;fontSize=14;rotation=90;" vertex="1" parent="1">
          <mxGeometry x="1270" y="-40" width="50" height="50" as="geometry" />
        </mxCell>
        <mxCell id="o3m-9pCvDbEGsgj16WtE-216" value="1038" style="text;html=1;align=center;verticalAlign=middle;whiteSpace=wrap;rounded=0;fontSize=14;" vertex="1" parent="1">
          <mxGeometry x="1280" y="-23" width="20" height="30" as="geometry" />
        </mxCell>
        <mxCell id="o3m-9pCvDbEGsgj16WtE-217" value="" style="shape=cube;whiteSpace=wrap;html=1;boundedLbl=1;backgroundOutline=1;darkOpacity=0.05;darkOpacity2=0.1;size=10;fontSize=14;rotation=90;" vertex="1" parent="1">
          <mxGeometry x="1310" y="80" width="50" height="50" as="geometry" />
        </mxCell>
        <mxCell id="o3m-9pCvDbEGsgj16WtE-218" value="1027" style="text;html=1;align=center;verticalAlign=middle;whiteSpace=wrap;rounded=0;fontSize=14;" vertex="1" parent="1">
          <mxGeometry x="1320" y="97" width="20" height="30" as="geometry" />
        </mxCell>
        <mxCell id="o3m-9pCvDbEGsgj16WtE-219" value="" style="shape=cube;whiteSpace=wrap;html=1;boundedLbl=1;backgroundOutline=1;darkOpacity=0.05;darkOpacity2=0.1;size=10;fontSize=14;rotation=90;" vertex="1" parent="1">
          <mxGeometry x="1310" y="40" width="50" height="50" as="geometry" />
        </mxCell>
        <mxCell id="o3m-9pCvDbEGsgj16WtE-220" value="1031" style="text;html=1;align=center;verticalAlign=middle;whiteSpace=wrap;rounded=0;fontSize=14;" vertex="1" parent="1">
          <mxGeometry x="1320" y="57" width="20" height="30" as="geometry" />
        </mxCell>
        <mxCell id="o3m-9pCvDbEGsgj16WtE-221" value="" style="shape=cube;whiteSpace=wrap;html=1;boundedLbl=1;backgroundOutline=1;darkOpacity=0.05;darkOpacity2=0.1;size=10;fontSize=14;rotation=90;" vertex="1" parent="1">
          <mxGeometry x="1310" width="50" height="50" as="geometry" />
        </mxCell>
        <mxCell id="o3m-9pCvDbEGsgj16WtE-222" value="1035" style="text;html=1;align=center;verticalAlign=middle;whiteSpace=wrap;rounded=0;fontSize=14;" vertex="1" parent="1">
          <mxGeometry x="1320" y="17" width="20" height="30" as="geometry" />
        </mxCell>
        <mxCell id="o3m-9pCvDbEGsgj16WtE-223" value="" style="shape=cube;whiteSpace=wrap;html=1;boundedLbl=1;backgroundOutline=1;darkOpacity=0.05;darkOpacity2=0.1;size=10;fontSize=14;rotation=90;" vertex="1" parent="1">
          <mxGeometry x="1310" y="-40" width="50" height="50" as="geometry" />
        </mxCell>
        <mxCell id="o3m-9pCvDbEGsgj16WtE-224" value="1039" style="text;html=1;align=center;verticalAlign=middle;whiteSpace=wrap;rounded=0;fontSize=14;" vertex="1" parent="1">
          <mxGeometry x="1320" y="-23" width="20" height="30" as="geometry" />
        </mxCell>
        <mxCell id="o3m-9pCvDbEGsgj16WtE-101" value="63" style="text;html=1;align=center;verticalAlign=middle;whiteSpace=wrap;rounded=0;fontSize=14;" vertex="1" parent="1">
          <mxGeometry x="1290" y="167" width="17" height="20" as="geometry" />
        </mxCell>
        <mxCell id="o3m-9pCvDbEGsgj16WtE-102" value="" style="shape=cube;whiteSpace=wrap;html=1;boundedLbl=1;backgroundOutline=1;darkOpacity=0.05;darkOpacity2=0.1;size=10;fontSize=14;rotation=90;" vertex="1" parent="1">
          <mxGeometry x="1140" y="110" width="50" height="50" as="geometry" />
        </mxCell>
        <mxCell id="o3m-9pCvDbEGsgj16WtE-103" value="0" style="text;html=1;align=center;verticalAlign=middle;whiteSpace=wrap;rounded=0;fontSize=14;" vertex="1" parent="1">
          <mxGeometry x="1150" y="127" width="20" height="30" as="geometry" />
        </mxCell>
        <mxCell id="o3m-9pCvDbEGsgj16WtE-104" value="" style="shape=cube;whiteSpace=wrap;html=1;boundedLbl=1;backgroundOutline=1;darkOpacity=0.05;darkOpacity2=0.1;size=10;fontSize=14;rotation=90;" vertex="1" parent="1">
          <mxGeometry x="1140" y="70" width="50" height="50" as="geometry" />
        </mxCell>
        <mxCell id="o3m-9pCvDbEGsgj16WtE-105" value="4" style="text;html=1;align=center;verticalAlign=middle;whiteSpace=wrap;rounded=0;fontSize=14;" vertex="1" parent="1">
          <mxGeometry x="1150" y="87" width="20" height="30" as="geometry" />
        </mxCell>
        <mxCell id="o3m-9pCvDbEGsgj16WtE-106" value="" style="shape=cube;whiteSpace=wrap;html=1;boundedLbl=1;backgroundOutline=1;darkOpacity=0.05;darkOpacity2=0.1;size=10;fontSize=14;rotation=90;" vertex="1" parent="1">
          <mxGeometry x="1140" y="30" width="50" height="50" as="geometry" />
        </mxCell>
        <mxCell id="o3m-9pCvDbEGsgj16WtE-107" value="8" style="text;html=1;align=center;verticalAlign=middle;whiteSpace=wrap;rounded=0;fontSize=14;" vertex="1" parent="1">
          <mxGeometry x="1150" y="47" width="20" height="30" as="geometry" />
        </mxCell>
        <mxCell id="o3m-9pCvDbEGsgj16WtE-109" value="12" style="text;html=1;align=center;verticalAlign=middle;whiteSpace=wrap;rounded=0;fontSize=14;" vertex="1" parent="1">
          <mxGeometry x="1150" y="7" width="20" height="30" as="geometry" />
        </mxCell>
        <mxCell id="o3m-9pCvDbEGsgj16WtE-110" value="" style="shape=cube;whiteSpace=wrap;html=1;boundedLbl=1;backgroundOutline=1;darkOpacity=0.05;darkOpacity2=0.1;size=10;fontSize=14;rotation=90;" vertex="1" parent="1">
          <mxGeometry x="1180" y="110" width="50" height="50" as="geometry" />
        </mxCell>
        <mxCell id="o3m-9pCvDbEGsgj16WtE-111" value="1" style="text;html=1;align=center;verticalAlign=middle;whiteSpace=wrap;rounded=0;fontSize=14;" vertex="1" parent="1">
          <mxGeometry x="1190" y="127" width="20" height="30" as="geometry" />
        </mxCell>
        <mxCell id="o3m-9pCvDbEGsgj16WtE-112" value="" style="shape=cube;whiteSpace=wrap;html=1;boundedLbl=1;backgroundOutline=1;darkOpacity=0.05;darkOpacity2=0.1;size=10;fontSize=14;rotation=90;" vertex="1" parent="1">
          <mxGeometry x="1180" y="70" width="50" height="50" as="geometry" />
        </mxCell>
        <mxCell id="o3m-9pCvDbEGsgj16WtE-113" value="5" style="text;html=1;align=center;verticalAlign=middle;whiteSpace=wrap;rounded=0;fontSize=14;" vertex="1" parent="1">
          <mxGeometry x="1190" y="87" width="20" height="30" as="geometry" />
        </mxCell>
        <mxCell id="o3m-9pCvDbEGsgj16WtE-114" value="" style="shape=cube;whiteSpace=wrap;html=1;boundedLbl=1;backgroundOutline=1;darkOpacity=0.05;darkOpacity2=0.1;size=10;fontSize=14;rotation=90;" vertex="1" parent="1">
          <mxGeometry x="1180" y="30" width="50" height="50" as="geometry" />
        </mxCell>
        <mxCell id="o3m-9pCvDbEGsgj16WtE-115" value="9" style="text;html=1;align=center;verticalAlign=middle;whiteSpace=wrap;rounded=0;fontSize=14;" vertex="1" parent="1">
          <mxGeometry x="1190" y="47" width="20" height="30" as="geometry" />
        </mxCell>
        <mxCell id="o3m-9pCvDbEGsgj16WtE-117" value="13" style="text;html=1;align=center;verticalAlign=middle;whiteSpace=wrap;rounded=0;fontSize=14;" vertex="1" parent="1">
          <mxGeometry x="1190" y="7" width="20" height="30" as="geometry" />
        </mxCell>
        <mxCell id="o3m-9pCvDbEGsgj16WtE-118" value="" style="shape=cube;whiteSpace=wrap;html=1;boundedLbl=1;backgroundOutline=1;darkOpacity=0.05;darkOpacity2=0.1;size=10;fontSize=14;rotation=90;" vertex="1" parent="1">
          <mxGeometry x="1220" y="110" width="50" height="50" as="geometry" />
        </mxCell>
        <mxCell id="o3m-9pCvDbEGsgj16WtE-119" value="2" style="text;html=1;align=center;verticalAlign=middle;whiteSpace=wrap;rounded=0;fontSize=14;" vertex="1" parent="1">
          <mxGeometry x="1230" y="127" width="20" height="30" as="geometry" />
        </mxCell>
        <mxCell id="o3m-9pCvDbEGsgj16WtE-120" value="" style="shape=cube;whiteSpace=wrap;html=1;boundedLbl=1;backgroundOutline=1;darkOpacity=0.05;darkOpacity2=0.1;size=10;fontSize=14;rotation=90;" vertex="1" parent="1">
          <mxGeometry x="1220" y="70" width="50" height="50" as="geometry" />
        </mxCell>
        <mxCell id="o3m-9pCvDbEGsgj16WtE-121" value="6" style="text;html=1;align=center;verticalAlign=middle;whiteSpace=wrap;rounded=0;fontSize=14;" vertex="1" parent="1">
          <mxGeometry x="1230" y="87" width="20" height="30" as="geometry" />
        </mxCell>
        <mxCell id="o3m-9pCvDbEGsgj16WtE-122" value="" style="shape=cube;whiteSpace=wrap;html=1;boundedLbl=1;backgroundOutline=1;darkOpacity=0.05;darkOpacity2=0.1;size=10;fontSize=14;rotation=90;" vertex="1" parent="1">
          <mxGeometry x="1220" y="30" width="50" height="50" as="geometry" />
        </mxCell>
        <mxCell id="o3m-9pCvDbEGsgj16WtE-123" value="10" style="text;html=1;align=center;verticalAlign=middle;whiteSpace=wrap;rounded=0;fontSize=14;" vertex="1" parent="1">
          <mxGeometry x="1230" y="47" width="20" height="30" as="geometry" />
        </mxCell>
        <mxCell id="o3m-9pCvDbEGsgj16WtE-125" value="14" style="text;html=1;align=center;verticalAlign=middle;whiteSpace=wrap;rounded=0;fontSize=14;" vertex="1" parent="1">
          <mxGeometry x="1230" y="7" width="20" height="30" as="geometry" />
        </mxCell>
        <mxCell id="o3m-9pCvDbEGsgj16WtE-127" value="3" style="text;html=1;align=center;verticalAlign=middle;whiteSpace=wrap;rounded=0;fontSize=14;" vertex="1" parent="1">
          <mxGeometry x="1270" y="127" width="20" height="30" as="geometry" />
        </mxCell>
        <mxCell id="o3m-9pCvDbEGsgj16WtE-129" value="7" style="text;html=1;align=center;verticalAlign=middle;whiteSpace=wrap;rounded=0;fontSize=14;" vertex="1" parent="1">
          <mxGeometry x="1270" y="87" width="20" height="30" as="geometry" />
        </mxCell>
        <mxCell id="o3m-9pCvDbEGsgj16WtE-131" value="11" style="text;html=1;align=center;verticalAlign=middle;whiteSpace=wrap;rounded=0;fontSize=14;" vertex="1" parent="1">
          <mxGeometry x="1270" y="47" width="20" height="30" as="geometry" />
        </mxCell>
        <mxCell id="o3m-9pCvDbEGsgj16WtE-133" value="15" style="text;html=1;align=center;verticalAlign=middle;whiteSpace=wrap;rounded=0;fontSize=14;" vertex="1" parent="1">
          <mxGeometry x="1270" y="7" width="20" height="30" as="geometry" />
        </mxCell>
        <mxCell id="o3m-9pCvDbEGsgj16WtE-134" value="" style="shape=cube;whiteSpace=wrap;html=1;boundedLbl=1;backgroundOutline=1;darkOpacity=0.05;darkOpacity2=0.1;size=10;fontSize=14;rotation=90;" vertex="1" parent="1">
          <mxGeometry x="1130" y="120" width="50" height="50" as="geometry" />
        </mxCell>
        <mxCell id="o3m-9pCvDbEGsgj16WtE-135" value="1008" style="text;html=1;align=center;verticalAlign=middle;whiteSpace=wrap;rounded=0;fontSize=14;" vertex="1" parent="1">
          <mxGeometry x="1140" y="137" width="20" height="30" as="geometry" />
        </mxCell>
        <mxCell id="o3m-9pCvDbEGsgj16WtE-136" value="" style="shape=cube;whiteSpace=wrap;html=1;boundedLbl=1;backgroundOutline=1;darkOpacity=0.05;darkOpacity2=0.1;size=10;fontSize=14;rotation=90;" vertex="1" parent="1">
          <mxGeometry x="1130" y="80" width="50" height="50" as="geometry" />
        </mxCell>
        <mxCell id="o3m-9pCvDbEGsgj16WtE-137" value="1012" style="text;html=1;align=center;verticalAlign=middle;whiteSpace=wrap;rounded=0;fontSize=14;" vertex="1" parent="1">
          <mxGeometry x="1140" y="97" width="20" height="30" as="geometry" />
        </mxCell>
        <mxCell id="o3m-9pCvDbEGsgj16WtE-138" value="" style="shape=cube;whiteSpace=wrap;html=1;boundedLbl=1;backgroundOutline=1;darkOpacity=0.05;darkOpacity2=0.1;size=10;fontSize=14;rotation=90;" vertex="1" parent="1">
          <mxGeometry x="1130" y="40" width="50" height="50" as="geometry" />
        </mxCell>
        <mxCell id="o3m-9pCvDbEGsgj16WtE-139" value="1016" style="text;html=1;align=center;verticalAlign=middle;whiteSpace=wrap;rounded=0;fontSize=14;" vertex="1" parent="1">
          <mxGeometry x="1140" y="57" width="20" height="30" as="geometry" />
        </mxCell>
        <mxCell id="o3m-9pCvDbEGsgj16WtE-140" value="" style="shape=cube;whiteSpace=wrap;html=1;boundedLbl=1;backgroundOutline=1;darkOpacity=0.05;darkOpacity2=0.1;size=10;fontSize=14;rotation=90;" vertex="1" parent="1">
          <mxGeometry x="1130" width="50" height="50" as="geometry" />
        </mxCell>
        <mxCell id="o3m-9pCvDbEGsgj16WtE-141" value="1020" style="text;html=1;align=center;verticalAlign=middle;whiteSpace=wrap;rounded=0;fontSize=14;" vertex="1" parent="1">
          <mxGeometry x="1140" y="17" width="20" height="30" as="geometry" />
        </mxCell>
        <mxCell id="o3m-9pCvDbEGsgj16WtE-142" value="" style="shape=cube;whiteSpace=wrap;html=1;boundedLbl=1;backgroundOutline=1;darkOpacity=0.05;darkOpacity2=0.1;size=10;fontSize=14;rotation=90;" vertex="1" parent="1">
          <mxGeometry x="1170" y="120" width="50" height="50" as="geometry" />
        </mxCell>
        <mxCell id="o3m-9pCvDbEGsgj16WtE-143" value="1009" style="text;html=1;align=center;verticalAlign=middle;whiteSpace=wrap;rounded=0;fontSize=14;" vertex="1" parent="1">
          <mxGeometry x="1180" y="137" width="20" height="30" as="geometry" />
        </mxCell>
        <mxCell id="o3m-9pCvDbEGsgj16WtE-144" value="" style="shape=cube;whiteSpace=wrap;html=1;boundedLbl=1;backgroundOutline=1;darkOpacity=0.05;darkOpacity2=0.1;size=10;fontSize=14;rotation=90;" vertex="1" parent="1">
          <mxGeometry x="1170" y="80" width="50" height="50" as="geometry" />
        </mxCell>
        <mxCell id="o3m-9pCvDbEGsgj16WtE-145" value="1013" style="text;html=1;align=center;verticalAlign=middle;whiteSpace=wrap;rounded=0;fontSize=14;" vertex="1" parent="1">
          <mxGeometry x="1180" y="97" width="20" height="30" as="geometry" />
        </mxCell>
        <mxCell id="o3m-9pCvDbEGsgj16WtE-146" value="" style="shape=cube;whiteSpace=wrap;html=1;boundedLbl=1;backgroundOutline=1;darkOpacity=0.05;darkOpacity2=0.1;size=10;fontSize=14;rotation=90;" vertex="1" parent="1">
          <mxGeometry x="1170" y="40" width="50" height="50" as="geometry" />
        </mxCell>
        <mxCell id="o3m-9pCvDbEGsgj16WtE-147" value="1017" style="text;html=1;align=center;verticalAlign=middle;whiteSpace=wrap;rounded=0;fontSize=14;" vertex="1" parent="1">
          <mxGeometry x="1180" y="57" width="20" height="30" as="geometry" />
        </mxCell>
        <mxCell id="o3m-9pCvDbEGsgj16WtE-148" value="" style="shape=cube;whiteSpace=wrap;html=1;boundedLbl=1;backgroundOutline=1;darkOpacity=0.05;darkOpacity2=0.1;size=10;fontSize=14;rotation=90;" vertex="1" parent="1">
          <mxGeometry x="1170" width="50" height="50" as="geometry" />
        </mxCell>
        <mxCell id="o3m-9pCvDbEGsgj16WtE-149" value="1021" style="text;html=1;align=center;verticalAlign=middle;whiteSpace=wrap;rounded=0;fontSize=14;" vertex="1" parent="1">
          <mxGeometry x="1180" y="17" width="20" height="30" as="geometry" />
        </mxCell>
        <mxCell id="o3m-9pCvDbEGsgj16WtE-150" value="" style="shape=cube;whiteSpace=wrap;html=1;boundedLbl=1;backgroundOutline=1;darkOpacity=0.05;darkOpacity2=0.1;size=10;fontSize=14;rotation=90;" vertex="1" parent="1">
          <mxGeometry x="1210" y="120" width="50" height="50" as="geometry" />
        </mxCell>
        <mxCell id="o3m-9pCvDbEGsgj16WtE-151" value="1010" style="text;html=1;align=center;verticalAlign=middle;whiteSpace=wrap;rounded=0;fontSize=14;" vertex="1" parent="1">
          <mxGeometry x="1220" y="137" width="20" height="30" as="geometry" />
        </mxCell>
        <mxCell id="o3m-9pCvDbEGsgj16WtE-152" value="" style="shape=cube;whiteSpace=wrap;html=1;boundedLbl=1;backgroundOutline=1;darkOpacity=0.05;darkOpacity2=0.1;size=10;fontSize=14;rotation=90;" vertex="1" parent="1">
          <mxGeometry x="1210" y="80" width="50" height="50" as="geometry" />
        </mxCell>
        <mxCell id="o3m-9pCvDbEGsgj16WtE-153" value="1014" style="text;html=1;align=center;verticalAlign=middle;whiteSpace=wrap;rounded=0;fontSize=14;" vertex="1" parent="1">
          <mxGeometry x="1220" y="97" width="20" height="30" as="geometry" />
        </mxCell>
        <mxCell id="o3m-9pCvDbEGsgj16WtE-154" value="" style="shape=cube;whiteSpace=wrap;html=1;boundedLbl=1;backgroundOutline=1;darkOpacity=0.05;darkOpacity2=0.1;size=10;fontSize=14;rotation=90;" vertex="1" parent="1">
          <mxGeometry x="1210" y="40" width="50" height="50" as="geometry" />
        </mxCell>
        <mxCell id="o3m-9pCvDbEGsgj16WtE-155" value="1018" style="text;html=1;align=center;verticalAlign=middle;whiteSpace=wrap;rounded=0;fontSize=14;" vertex="1" parent="1">
          <mxGeometry x="1220" y="57" width="20" height="30" as="geometry" />
        </mxCell>
        <mxCell id="o3m-9pCvDbEGsgj16WtE-156" value="" style="shape=cube;whiteSpace=wrap;html=1;boundedLbl=1;backgroundOutline=1;darkOpacity=0.05;darkOpacity2=0.1;size=10;fontSize=14;rotation=90;" vertex="1" parent="1">
          <mxGeometry x="1210" width="50" height="50" as="geometry" />
        </mxCell>
        <mxCell id="o3m-9pCvDbEGsgj16WtE-157" value="1022" style="text;html=1;align=center;verticalAlign=middle;whiteSpace=wrap;rounded=0;fontSize=14;" vertex="1" parent="1">
          <mxGeometry x="1220" y="17" width="20" height="30" as="geometry" />
        </mxCell>
        <mxCell id="o3m-9pCvDbEGsgj16WtE-158" value="" style="shape=cube;whiteSpace=wrap;html=1;boundedLbl=1;backgroundOutline=1;darkOpacity=0.05;darkOpacity2=0.1;size=10;fontSize=14;rotation=90;" vertex="1" parent="1">
          <mxGeometry x="1250" y="120" width="50" height="50" as="geometry" />
        </mxCell>
        <mxCell id="o3m-9pCvDbEGsgj16WtE-159" value="1011" style="text;html=1;align=center;verticalAlign=middle;whiteSpace=wrap;rounded=0;fontSize=14;" vertex="1" parent="1">
          <mxGeometry x="1260" y="137" width="20" height="30" as="geometry" />
        </mxCell>
        <mxCell id="o3m-9pCvDbEGsgj16WtE-160" value="" style="shape=cube;whiteSpace=wrap;html=1;boundedLbl=1;backgroundOutline=1;darkOpacity=0.05;darkOpacity2=0.1;size=10;fontSize=14;rotation=90;" vertex="1" parent="1">
          <mxGeometry x="1250" y="80" width="50" height="50" as="geometry" />
        </mxCell>
        <mxCell id="o3m-9pCvDbEGsgj16WtE-161" value="1015" style="text;html=1;align=center;verticalAlign=middle;whiteSpace=wrap;rounded=0;fontSize=14;" vertex="1" parent="1">
          <mxGeometry x="1260" y="97" width="20" height="30" as="geometry" />
        </mxCell>
        <mxCell id="o3m-9pCvDbEGsgj16WtE-162" value="" style="shape=cube;whiteSpace=wrap;html=1;boundedLbl=1;backgroundOutline=1;darkOpacity=0.05;darkOpacity2=0.1;size=10;fontSize=14;rotation=90;" vertex="1" parent="1">
          <mxGeometry x="1250" y="40" width="50" height="50" as="geometry" />
        </mxCell>
        <mxCell id="o3m-9pCvDbEGsgj16WtE-163" value="1019" style="text;html=1;align=center;verticalAlign=middle;whiteSpace=wrap;rounded=0;fontSize=14;" vertex="1" parent="1">
          <mxGeometry x="1260" y="57" width="20" height="30" as="geometry" />
        </mxCell>
        <mxCell id="o3m-9pCvDbEGsgj16WtE-164" value="" style="shape=cube;whiteSpace=wrap;html=1;boundedLbl=1;backgroundOutline=1;darkOpacity=0.05;darkOpacity2=0.1;size=10;fontSize=14;rotation=90;" vertex="1" parent="1">
          <mxGeometry x="1250" width="50" height="50" as="geometry" />
        </mxCell>
        <mxCell id="o3m-9pCvDbEGsgj16WtE-165" value="1023" style="text;html=1;align=center;verticalAlign=middle;whiteSpace=wrap;rounded=0;fontSize=14;" vertex="1" parent="1">
          <mxGeometry x="1260" y="17" width="20" height="30" as="geometry" />
        </mxCell>
        <mxCell id="o3m-9pCvDbEGsgj16WtE-225" value="" style="endArrow=none;dashed=1;html=1;dashPattern=1 3;strokeWidth=2;rounded=0;fontSize=22;" edge="1" parent="1">
          <mxGeometry width="50" height="50" relative="1" as="geometry">
            <mxPoint x="1600" y="-50" as="sourcePoint" />
            <mxPoint x="1365" y="120" as="targetPoint" />
          </mxGeometry>
        </mxCell>
        <mxCell id="gWMx022aQ0IEz9bWRcaY-1" value="$$z$$" style="text;html=1;align=center;verticalAlign=middle;whiteSpace=wrap;rounded=0;fontSize=22;" vertex="1" parent="1">
          <mxGeometry x="740" y="332" width="30" height="20" as="geometry" />
        </mxCell>
        <mxCell id="gWMx022aQ0IEz9bWRcaY-2" value="" style="endArrow=classic;html=1;rounded=0;" edge="1" parent="1">
          <mxGeometry width="50" height="50" relative="1" as="geometry">
            <mxPoint x="717" y="368" as="sourcePoint" />
            <mxPoint x="787" y="368" as="targetPoint" />
          </mxGeometry>
        </mxCell>
        <mxCell id="gWMx022aQ0IEz9bWRcaY-3" value="" style="endArrow=classic;html=1;rounded=0;" edge="1" parent="1">
          <mxGeometry width="50" height="50" relative="1" as="geometry">
            <mxPoint x="717" y="368" as="sourcePoint" />
            <mxPoint x="717" y="308" as="targetPoint" />
          </mxGeometry>
        </mxCell>
        <mxCell id="gWMx022aQ0IEz9bWRcaY-4" value="" style="endArrow=classic;html=1;rounded=0;" edge="1" parent="1">
          <mxGeometry width="50" height="50" relative="1" as="geometry">
            <mxPoint x="717" y="368" as="sourcePoint" />
            <mxPoint x="767" y="318" as="targetPoint" />
          </mxGeometry>
        </mxCell>
        <mxCell id="gWMx022aQ0IEz9bWRcaY-5" value="$$x$$" style="text;html=1;align=center;verticalAlign=middle;whiteSpace=wrap;rounded=0;fontSize=22;" vertex="1" parent="1">
          <mxGeometry x="735" y="370" width="30" height="20" as="geometry" />
        </mxCell>
        <mxCell id="gWMx022aQ0IEz9bWRcaY-6" value="$$y$$" style="text;html=1;align=center;verticalAlign=middle;whiteSpace=wrap;rounded=0;fontSize=22;" vertex="1" parent="1">
          <mxGeometry x="690" y="330" width="30" height="20" as="geometry" />
        </mxCell>
      </root>
    </mxGraphModel>
  </diagram>
</mxfile>
